NSW-ACT-Foundation-Regular.ufo
<glyph name="quotesingle" format="2">
  <advance width="181"/>
  <unicode hex="0027"/>
  <outline>
    <contour>
      <point x="108" y="500" type="curve" smooth="yes"/>
      <point x="120" y="500"/>
      <point x="134" y="507"/>
      <point x="135" y="521" type="curve" smooth="yes"/>
      <point x="145" y="620" type="line" smooth="yes"/>
      <point x="146" y="640"/>
      <point x="134" y="650"/>
      <point x="120" y="650" type="curve" smooth="yes"/>
      <point x="108" y="650"/>
      <point x="96" y="642"/>
      <point x="94" y="628" type="curve" smooth="yes"/>
      <point x="83" y="528" type="line" smooth="yes"/>
      <point x="81" y="509"/>
      <point x="94" y="500"/>
    </contour>
  </outline>
</glyph>
<glyph name="parenright" format="2">
  <advance width="337"/>
  <unicode hex="0029"/>
  <outline>
    <contour>
      <point x="4" y="-274" type="curve" smooth="yes"/>
      <point x="13" y="-284"/>
      <point x="30" y="-285"/>
      <point x="42" y="-273" type="curve" smooth="yes"/>
      <point x="178" y="-133"/>
      <point x="257" y="42"/>
      <point x="271" y="167" type="curve" smooth="yes"/>
      <point x="283" y="276"/>
      <point x="239" y="476"/>
      <point x="146" y="640" type="curve" smooth="yes"/>
      <point x="132" y="664"/>
      <point x="116" y="673"/>
      <point x="105" y="668" type="curve" smooth="yes"/>
      <point x="97" y="664"/>
      <point x="95" y="650"/>
      <point x="107" y="627" type="curve" smooth="yes"/>
      <point x="193" y="465"/>
      <point x="230" y="314"/>
      <point x="217" y="186" type="curve" smooth="yes"/>
      <point x="202" y="44"/>
      <point x="146" y="-100"/>
      <point x="13" y="-240" type="curve" smooth="yes"/>
      <point x="1" y="-253"/>
      <point x="-2" y="-267"/>
    </contour>
  </outline>
</glyph>
<glyph name="asterisk" format="2">
  <advance width="302"/>
  <unicode hex="002A"/>
  <outline>
    <contour>
      <point x="85" y="491" type="curve" smooth="yes"/>
      <point x="90" y="483"/>
      <point x="102" y="481"/>
      <point x="118" y="490" type="curve" smooth="yes"/>
      <point x="248" y="574" type="line" smooth="yes"/>
      <point x="264" y="584"/>
      <point x="266" y="598"/>
      <point x="260" y="607" type="curve" smooth="yes"/>
      <point x="254" y="614"/>
      <point x="242" y="617"/>
      <point x="227" y="608" type="curve" smooth="yes"/>
      <point x="97" y="524" type="line" smooth="yes"/>
      <point x="81" y="513"/>
      <point x="78" y="499"/>
    </contour>
    <contour>
      <point x="251" y="492" type="curve" smooth="yes"/>
      <point x="255" y="499"/>
      <point x="254" y="511"/>
      <point x="241" y="521" type="curve" smooth="yes"/>
      <point x="127" y="606" type="line" smooth="yes"/>
      <point x="114" y="616"/>
      <point x="102" y="614"/>
      <point x="97" y="606" type="curve" smooth="yes"/>
      <point x="90" y="599"/>
      <point x="91" y="586"/>
      <point x="105" y="576" type="curve" smooth="yes"/>
      <point x="218" y="492" type="line" smooth="yes"/>
      <point x="231" y="482"/>
      <point x="244" y="484"/>
    </contour>
    <contour>
      <point x="160" y="448" type="curve" smooth="yes"/>
      <point x="170" y="447"/>
      <point x="182" y="456"/>
      <point x="184" y="475" type="curve" smooth="yes"/>
      <point x="199" y="623" type="line" smooth="yes"/>
      <point x="201" y="641"/>
      <point x="193" y="650"/>
      <point x="184" y="650" type="curve" smooth="yes"/>
      <point x="174" y="650"/>
      <point x="162" y="641"/>
      <point x="160" y="623" type="curve" smooth="yes"/>
      <point x="145" y="475" type="line" smooth="yes"/>
      <point x="143" y="458"/>
      <point x="151" y="450"/>
    </contour>
  </outline>
</glyph>
<glyph name="comma" format="2">
  <advance width="164"/>
  <unicode hex="002C"/>
  <outline>
    <contour>
      <point x="37" y="-101.0" type="curve" smooth="yes"/>
      <point x="54" y="-101.0"/>
      <point x="64" y="-91"/>
      <point x="66" y="-71" type="curve" smooth="yes"/>
      <point x="76" y="18" type="line" smooth="yes"/>
      <point x="78" y="39"/>
      <point x="71" y="50"/>
      <point x="54" y="50" type="curve" smooth="yes"/>
      <point x="37" y="50"/>
      <point x="28" y="40"/>
      <point x="26" y="21" type="curve" smooth="yes"/>
      <point x="16" y="-71" type="line" smooth="yes"/>
      <point x="14" y="-91"/>
      <point x="21" y="-101.0"/>
    </contour>
  </outline>
</glyph>
<glyph name="period" format="2">
  <advance width="164"/>
  <unicode hex="002E"/>
  <outline>
    <contour>
      <point x="51" y="-6" type="curve" smooth="yes"/>
      <point x="71" y="-6"/>
      <point x="88" y="14"/>
      <point x="88" y="33" type="curve" smooth="yes"/>
      <point x="88" y="54"/>
      <point x="71" y="70"/>
      <point x="51" y="70" type="curve" smooth="yes"/>
      <point x="33" y="70"/>
      <point x="14" y="54"/>
      <point x="14" y="33" type="curve" smooth="yes"/>
      <point x="14" y="14"/>
      <point x="33" y="-6"/>
    </contour>
  </outline>
</glyph>
<glyph name="zero" format="2">
  <advance width="445"/>
  <unicode hex="0030"/>
  <outline>
    <contour>
      <point x="151" y="-4" type="curve" smooth="yes"/>
      <point x="266.0" y="-3.0"/>
      <point x="416.0" y="202.0"/>
      <point x="416" y="385" type="curve" smooth="yes"/>
      <point x="416" y="472"/>
      <point x="374" y="568"/>
      <point x="268" y="568" type="curve" smooth="yes"/>
      <point x="112.0" y="568.0"/>
      <point x="30" y="346"/>
      <point x="30" y="178" type="curve" smooth="yes"/>
      <point x="30" y="75"/>
      <point x="76" y="-5"/>
    </contour>
    <contour>
      <point x="147" y="47" type="curve" smooth="yes"/>
      <point x="116" y="47"/>
      <point x="82" y="88"/>
      <point x="82" y="170" type="curve" smooth="yes"/>
      <point x="82" y="298"/>
      <point x="142" y="517"/>
      <point x="274" y="517" type="curve" smooth="yes"/>
      <point x="335.0" y="517.0"/>
      <point x="364" y="468"/>
      <point x="364" y="396" type="curve" smooth="yes"/>
      <point x="364.0" y="220.0"/>
      <point x="226" y="47.0"/>
    </contour>
  </outline>
</glyph>
<glyph name="six" format="2">
  <advance width="393"/>
  <unicode hex="0036"/>
  <outline>
    <contour>
      <point x="76" y="113" type="line"/>
      <point x="69" y="209"/>
      <point x="98" y="288"/>
      <point x="161" y="387" type="curve" smooth="yes"/>
      <point x="185" y="425"/>
      <point x="229" y="471"/>
      <point x="299" y="523" type="curve" smooth="yes"/>
      <point x="309" y="531"/>
      <point x="313" y="540"/>
      <point x="313" y="548" type="curve" smooth="yes"/>
      <point x="311" y="559"/>
      <point x="302" y="568"/>
      <point x="289" y="568" type="curve" smooth="yes"/>
      <point x="283" y="568"/>
      <point x="276" y="566"/>
      <point x="269" y="562" type="curve" smooth="yes"/>
      <point x="224" y="535"/>
      <point x="146" y="460"/>
      <point x="115" y="412" type="curve" smooth="yes"/>
      <point x="54" y="316"/>
      <point x="21" y="214"/>
      <point x="27" y="113" type="curve"/>
    </contour>
    <contour>
      <point x="151" y="0" type="curve" smooth="yes"/>
      <point x="253" y="0"/>
      <point x="351" y="149"/>
      <point x="343" y="257" type="curve" smooth="yes"/>
      <point x="339" y="321"/>
      <point x="298" y="353"/>
      <point x="226" y="353" type="curve" smooth="yes"/>
      <point x="139" y="353"/>
      <point x="82" y="306"/>
      <point x="51" y="244" type="curve"/>
      <point x="27" y="113" type="line"/>
      <point x="31" y="52"/>
      <point x="83" y="0"/>
    </contour>
    <contour>
      <point x="146" y="50" type="curve" smooth="yes"/>
      <point x="113" y="50"/>
      <point x="80" y="78"/>
      <point x="76" y="135" type="curve" smooth="yes"/>
      <point x="70" y="215"/>
      <point x="125" y="303"/>
      <point x="228" y="303" type="curve" smooth="yes"/>
      <point x="269" y="303"/>
      <point x="291" y="289"/>
      <point x="293" y="251" type="curve" smooth="yes"/>
      <point x="299" y="173"/>
      <point x="216" y="50"/>
    </contour>
  </outline>
</glyph>
<glyph name="eight" format="2">
  <advance width="359"/>
  <unicode hex="0038"/>
  <outline>
    <contour>
      <point x="159" y="45" type="curve" smooth="yes"/>
      <point x="109" y="45"/>
      <point x="70" y="91"/>
      <point x="70" y="137" type="curve" smooth="yes"/>
      <point x="70" y="201"/>
      <point x="95" y="240"/>
      <point x="172" y="296" type="curve" smooth="yes"/>
      <point x="249" y="352"/>
      <point x="341" y="423"/>
      <point x="341" y="488" type="curve" smooth="yes"/>
      <point x="341" y="542"/>
      <point x="269" y="568"/>
      <point x="202" y="568" type="curve" smooth="yes"/>
      <point x="129" y="568"/>
      <point x="51" y="533"/>
      <point x="51" y="448" type="curve" smooth="yes"/>
      <point x="51" y="387"/>
      <point x="107" y="335"/>
      <point x="134" y="308" type="curve" smooth="yes"/>
      <point x="149" y="293" type="line" smooth="yes"/>
      <point x="185" y="257"/>
      <point x="255" y="194"/>
      <point x="255" y="149" type="curve" smooth="yes"/>
      <point x="255" y="101"/>
      <point x="217" y="45"/>
    </contour>
    <contour>
      <point x="156" y="-4" type="curve" smooth="yes"/>
      <point x="244" y="-4"/>
      <point x="306" y="58"/>
      <point x="306" y="149" type="curve" smooth="yes"/>
      <point x="306" y="199"/>
      <point x="251" y="265"/>
      <point x="194" y="320" type="curve" smooth="yes"/>
      <point x="164" y="349" type="line" smooth="yes"/>
      <point x="140" y="373"/>
      <point x="102" y="406"/>
      <point x="102" y="451" type="curve"/>
      <point x="102" y="504"/>
      <point x="155" y="518"/>
      <point x="199" y="518" type="curve" smooth="yes"/>
      <point x="248" y="518"/>
      <point x="294" y="506"/>
      <point x="294" y="488" type="curve" smooth="yes"/>
      <point x="294" y="462"/>
      <point x="210" y="386"/>
      <point x="140" y="335" type="curve" smooth="yes"/>
      <point x="43" y="264"/>
      <point x="21" y="209"/>
      <point x="21" y="133" type="curve" smooth="yes"/>
      <point x="21" y="54"/>
      <point x="80" y="-4"/>
    </contour>
  </outline>
</glyph>
<glyph name="colon" format="2">
  <advance width="165"/>
  <unicode hex="003A"/>
  <outline>
    <contour>
      <point x="51" y="-6" type="curve" smooth="yes"/>
      <point x="71" y="-6"/>
      <point x="88" y="14"/>
      <point x="88" y="33" type="curve" smooth="yes"/>
      <point x="88" y="54"/>
      <point x="71" y="70"/>
      <point x="51" y="70" type="curve" smooth="yes"/>
      <point x="33" y="70"/>
      <point x="14" y="54"/>
      <point x="14" y="33" type="curve" smooth="yes"/>
      <point x="14" y="14"/>
      <point x="33" y="-6"/>
    </contour>
    <contour>
      <point x="81" y="220" type="curve" smooth="yes"/>
      <point x="101" y="220"/>
      <point x="118" y="240"/>
      <point x="118" y="259" type="curve" smooth="yes"/>
      <point x="118" y="280"/>
      <point x="101" y="296"/>
      <point x="81" y="296" type="curve" smooth="yes"/>
      <point x="63" y="296"/>
      <point x="44" y="280"/>
      <point x="44" y="259" type="curve" smooth="yes"/>
      <point x="44" y="240"/>
      <point x="63" y="220"/>
    </contour>
  </outline>
</glyph>
<glyph name="semicolon" format="2">
  <advance width="165"/>
  <unicode hex="003B"/>
  <outline>
    <contour>
      <point x="37" y="-101.0" type="curve" smooth="yes"/>
      <point x="54" y="-101.0"/>
      <point x="64" y="-91"/>
      <point x="66" y="-71" type="curve" smooth="yes"/>
      <point x="76" y="18" type="line" smooth="yes"/>
      <point x="78" y="39"/>
      <point x="71" y="50"/>
      <point x="54" y="50" type="curve" smooth="yes"/>
      <point x="37" y="50"/>
      <point x="28" y="40"/>
      <point x="26" y="21" type="curve" smooth="yes"/>
      <point x="16" y="-71" type="line" smooth="yes"/>
      <point x="14" y="-91"/>
      <point x="21" y="-101.0"/>
    </contour>
    <contour>
      <point x="81" y="220" type="curve" smooth="yes"/>
      <point x="101" y="220"/>
      <point x="118" y="240"/>
      <point x="118" y="259" type="curve" smooth="yes"/>
      <point x="118" y="280"/>
      <point x="101" y="296"/>
      <point x="81" y="296" type="curve" smooth="yes"/>
      <point x="63" y="296"/>
      <point x="44" y="280"/>
      <point x="44" y="259" type="curve" smooth="yes"/>
      <point x="44" y="240"/>
      <point x="63" y="220"/>
    </contour>
  </outline>
</glyph>
<glyph name="equal" format="2">
  <advance width="370"/>
  <unicode hex="003D"/>
  <outline>
    <contour>
      <point x="291" y="248" type="line" smooth="yes"/>
      <point x="309" y="248"/>
      <point x="317" y="260"/>
      <point x="316" y="271" type="curve" smooth="yes"/>
      <point x="315" y="282"/>
      <point x="306" y="293"/>
      <point x="288" y="293" type="curve" smooth="yes"/>
      <point x="61" y="293" type="line" smooth="yes"/>
      <point x="43" y="293"/>
      <point x="34" y="282"/>
      <point x="35" y="271" type="curve" smooth="yes"/>
      <point x="36" y="260"/>
      <point x="46" y="248"/>
      <point x="64" y="248" type="curve" smooth="yes"/>
    </contour>
    <contour>
      <point x="275" y="97" type="line" smooth="yes"/>
      <point x="293" y="97"/>
      <point x="301" y="108"/>
      <point x="301" y="120" type="curve" smooth="yes"/>
      <point x="300" y="131"/>
      <point x="290" y="142"/>
      <point x="272" y="142" type="curve" smooth="yes"/>
      <point x="45" y="142" type="line" smooth="yes"/>
      <point x="27" y="142"/>
      <point x="19" y="131"/>
      <point x="20" y="120" type="curve" smooth="yes"/>
      <point x="20" y="109"/>
      <point x="30" y="97"/>
      <point x="48" y="97" type="curve" smooth="yes"/>
    </contour>
  </outline>
</glyph>
<glyph name="A" format="2">
  <advance width="424"/>
  <unicode hex="0041"/>
  <outline>
    <contour>
      <point x="-13" y="0" type="curve" smooth="yes"/>
      <point x="3" y="-4"/>
      <point x="15" y="8"/>
      <point x="22" y="24" type="curve" smooth="yes"/>
      <point x="266" y="583" type="line"/>
      <point x="296" y="625" type="line"/>
      <point x="294" y="640"/>
      <point x="289" y="650"/>
      <point x="270" y="650" type="curve" smooth="yes"/>
      <point x="253" y="650"/>
      <point x="247" y="641"/>
      <point x="240" y="626" type="curve" smooth="yes"/>
      <point x="-23" y="40" type="line" smooth="yes"/>
      <point x="-33" y="18"/>
      <point x="-28" y="4"/>
    </contour>
    <contour>
      <point x="136" y="329" type="line"/>
      <point x="323" y="329" type="line"/>
      <point x="315" y="372" type="line"/>
      <point x="155" y="372" type="line"/>
    </contour>
    <contour>
      <point x="366" y="0" type="curve" smooth="yes"/>
      <point x="385.0" y="2.0"/>
      <point x="390" y="16"/>
      <point x="387" y="34" type="curve" smooth="yes"/>
      <point x="296" y="625" type="line"/>
      <point x="258" y="586" type="line"/>
      <point x="337" y="28" type="line" smooth="yes"/>
      <point x="339" y="12"/>
      <point x="345" y="-2"/>
    </contour>
  </outline>
</glyph>
<glyph name="C" format="2">
  <advance width="477"/>
  <unicode hex="0043"/>
  <outline>
    <contour>
      <point x="211" y="-4" type="curve" smooth="yes"/>
      <point x="301" y="-4"/>
      <point x="379" y="63"/>
      <point x="410" y="125" type="curve" smooth="yes"/>
      <point x="423" y="151"/>
      <point x="425" y="165"/>
      <point x="408" y="174" type="curve" smooth="yes"/>
      <point x="391" y="183"/>
      <point x="379" y="172"/>
      <point x="368" y="149" type="curve" smooth="yes"/>
      <point x="342" y="99"/>
      <point x="288" y="42"/>
      <point x="207" y="42" type="curve" smooth="yes"/>
      <point x="111" y="42"/>
      <point x="67" y="138"/>
      <point x="103" y="334" type="curve" smooth="yes"/>
      <point x="131" y="488"/>
      <point x="193" y="600"/>
      <point x="307" y="600" type="curve" smooth="yes"/>
      <point x="355" y="600"/>
      <point x="394" y="572"/>
      <point x="415" y="557" type="curve" smooth="yes"/>
      <point x="425" y="549"/>
      <point x="443" y="542"/>
      <point x="456" y="557" type="curve" smooth="yes"/>
      <point x="469" y="572"/>
      <point x="461" y="587"/>
      <point x="452" y="595" type="curve" smooth="yes"/>
      <point x="424" y="620"/>
      <point x="382" y="649"/>
      <point x="304" y="649" type="curve" smooth="yes"/>
      <point x="165" y="649"/>
      <point x="86" y="514"/>
      <point x="53" y="340" type="curve" smooth="yes"/>
      <point x="11" y="122"/>
      <point x="70" y="-4"/>
    </contour>
  </outline>
</glyph>
<glyph name="E" format="2">
  <advance width="459"/>
  <unicode hex="0045"/>
  <outline>
    <contour>
      <point x="31" y="27" type="line" smooth="yes"/>
      <point x="29" y="12"/>
      <point x="38" y="0"/>
      <point x="56" y="0" type="curve"/>
      <point x="81" y="25" type="line"/>
      <point x="144" y="619" type="line"/>
      <point x="123" y="650" type="line"/>
      <point x="101" y="650"/>
      <point x="96" y="639"/>
      <point x="94" y="623" type="curve"/>
    </contour>
    <contour>
      <point x="397" y="24" type="curve" smooth="yes"/>
      <point x="397" y="36"/>
      <point x="390" y="46"/>
      <point x="370" y="46" type="curve" smooth="yes"/>
      <point x="61" y="46" type="line"/>
      <point x="56" y="0" type="line"/>
      <point x="370" y="0" type="line" smooth="yes"/>
      <point x="390.0" y="0.0"/>
      <point x="397" y="12"/>
    </contour>
    <contour>
      <point x="409" y="350" type="curve" smooth="yes"/>
      <point x="409" y="362"/>
      <point x="401" y="373"/>
      <point x="381" y="373" type="curve" smooth="yes"/>
      <point x="94" y="373" type="line"/>
      <point x="89" y="327" type="line"/>
      <point x="379" y="327" type="line" smooth="yes"/>
      <point x="399" y="327"/>
      <point x="409" y="338"/>
    </contour>
    <contour>
      <point x="461" y="627" type="curve" smooth="yes"/>
      <point x="461" y="639"/>
      <point x="454" y="650"/>
      <point x="434" y="650" type="curve" smooth="yes"/>
      <point x="123" y="650" type="line"/>
      <point x="117" y="604" type="line"/>
      <point x="434" y="604" type="line" smooth="yes"/>
      <point x="454" y="604"/>
      <point x="461" y="615"/>
    </contour>
  </outline>
</glyph>
<glyph name="F" format="2">
  <advance width="436"/>
  <unicode hex="0046"/>
  <outline>
    <contour>
      <point x="56" y="0" type="curve" smooth="yes"/>
      <point x="78" y="0"/>
      <point x="80" y="15"/>
      <point x="81" y="25" type="curve"/>
      <point x="144" y="619" type="line"/>
      <point x="123" y="650" type="line"/>
      <point x="101" y="650"/>
      <point x="96" y="639"/>
      <point x="94" y="623" type="curve" smooth="yes"/>
      <point x="31" y="27" type="line" smooth="yes"/>
      <point x="29" y="12"/>
      <point x="38" y="0"/>
    </contour>
    <contour>
      <point x="400" y="350" type="curve" smooth="yes"/>
      <point x="400" y="362"/>
      <point x="392" y="373"/>
      <point x="372" y="373" type="curve" smooth="yes"/>
      <point x="96" y="373" type="line"/>
      <point x="90" y="327" type="line"/>
      <point x="372" y="327" type="line" smooth="yes"/>
      <point x="392.0" y="327.0"/>
      <point x="400" y="338"/>
    </contour>
    <contour>
      <point x="461" y="627" type="curve" smooth="yes"/>
      <point x="461" y="639"/>
      <point x="454" y="650"/>
      <point x="434" y="650" type="curve" smooth="yes"/>
      <point x="123" y="650" type="line"/>
      <point x="118" y="604" type="line"/>
      <point x="434" y="604" type="line" smooth="yes"/>
      <point x="454" y="604"/>
      <point x="461" y="615"/>
    </contour>
  </outline>
</glyph>
<glyph name="J" format="2">
  <advance width="364"/>
  <unicode hex="004A"/>
  <outline>
    <contour>
      <point x="-5" y="103" type="curve" smooth="yes"/>
      <point x="-17" y="91"/>
      <point x="-14" y="77"/>
      <point x="-5" y="65" type="curve" smooth="yes"/>
      <point x="24" y="28"/>
      <point x="65" y="0"/>
      <point x="119" y="0" type="curve" smooth="yes"/>
      <point x="220" y="0"/>
      <point x="269" y="57"/>
      <point x="284" y="205" type="curve" smooth="yes"/>
      <point x="327" y="623" type="line" smooth="yes"/>
      <point x="329" y="641"/>
      <point x="325" y="654"/>
      <point x="305" y="654" type="curve" smooth="yes"/>
      <point x="285" y="654"/>
      <point x="279" y="643"/>
      <point x="277" y="627" type="curve" smooth="yes"/>
      <point x="234" y="205" type="line" smooth="yes"/>
      <point x="222" y="88"/>
      <point x="184" y="46"/>
      <point x="119" y="46" type="curve" smooth="yes"/>
      <point x="77" y="46"/>
      <point x="52" y="71"/>
      <point x="32" y="96" type="curve" smooth="yes"/>
      <point x="21" y="110"/>
      <point x="6" y="114"/>
    </contour>
  </outline>
</glyph>
<glyph name="L" format="2">
  <advance width="409"/>
  <unicode hex="004C"/>
  <outline>
    <contour>
      <point x="31" y="27" type="line" smooth="yes"/>
      <point x="29" y="12"/>
      <point x="38" y="0"/>
      <point x="56" y="0" type="curve"/>
      <point x="81" y="25" type="line"/>
      <point x="144" y="619" type="line" smooth="yes"/>
      <point x="146" y="637"/>
      <point x="143" y="650"/>
      <point x="123" y="650" type="curve" smooth="yes"/>
      <point x="103" y="650"/>
      <point x="96" y="639"/>
      <point x="94" y="623" type="curve" smooth="yes"/>
    </contour>
    <contour>
      <point x="383" y="26" type="curve" smooth="yes"/>
      <point x="383" y="40"/>
      <point x="374.0" y="50.0"/>
      <point x="356" y="50" type="curve" smooth="yes"/>
      <point x="61" y="50" type="line"/>
      <point x="56" y="0" type="line"/>
      <point x="357" y="0" type="line" smooth="yes"/>
      <point x="375.0" y="0.0"/>
      <point x="383" y="13"/>
    </contour>
  </outline>
</glyph>
<glyph name="O" format="2">
  <advance width="497"/>
  <unicode hex="004F"/>
  <outline>
    <contour>
      <point x="175" y="-4" type="curve" smooth="yes"/>
      <point x="336" y="-4"/>
      <point x="439" y="247"/>
      <point x="459" y="435" type="curve" smooth="yes"/>
      <point x="471" y="548"/>
      <point x="409" y="650"/>
      <point x="288" y="650.0" type="curve" smooth="yes"/>
      <point x="129" y="650"/>
      <point x="59" y="453"/>
      <point x="59" y="275" type="curve" smooth="yes"/>
      <point x="59" y="129"/>
      <point x="91" y="-4"/>
    </contour>
    <contour>
      <point x="171" y="42" type="curve" smooth="yes"/>
      <point x="130" y="42"/>
      <point x="105" y="153"/>
      <point x="109" y="276" type="curve" smooth="yes"/>
      <point x="113" y="430"/>
      <point x="162" y="604"/>
      <point x="283" y="604.0" type="curve" smooth="yes"/>
      <point x="380" y="604.0"/>
      <point x="419" y="530"/>
      <point x="408" y="425" type="curve" smooth="yes"/>
      <point x="393.0" y="282.0"/>
      <point x="304.0" y="42.0"/>
    </contour>
  </outline>
</glyph>
<glyph name="R" format="2">
  <advance width="466"/>
  <unicode hex="0052"/>
  <outline>
    <contour>
      <point x="440" y="486" type="curve" smooth="yes"/>
      <point x="450" y="606"/>
      <point x="337" y="660"/>
      <point x="123" y="650" type="curve"/>
      <point x="130" y="604" type="line"/>
      <point x="310" y="616"/>
      <point x="399" y="569"/>
      <point x="390" y="491" type="curve" smooth="yes"/>
      <point x="381" y="413"/>
      <point x="255" y="349"/>
      <point x="92" y="348" type="curve"/>
      <point x="88" y="304" type="line"/>
      <point x="283" y="308"/>
      <point x="431" y="380"/>
    </contour>
    <contour>
      <point x="365" y="0" type="curve" smooth="yes"/>
      <point x="375" y="0"/>
      <point x="385" y="7"/>
      <point x="387" y="15" type="curve" smooth="yes"/>
      <point x="389" y="23"/>
      <point x="387" y="34"/>
      <point x="375" y="50" type="curve" smooth="yes"/>
      <point x="154" y="334" type="line"/>
      <point x="96" y="327" type="line"/>
      <point x="334" y="19" type="line" smooth="yes"/>
      <point x="344" y="6"/>
      <point x="357" y="0"/>
    </contour>
    <contour>
      <point x="56" y="0" type="curve" smooth="yes"/>
      <point x="78" y="0"/>
      <point x="80" y="16"/>
      <point x="82" y="31" type="curve"/>
      <point x="144" y="619" type="line"/>
      <point x="123" y="650" type="line"/>
      <point x="101" y="650"/>
      <point x="96" y="639"/>
      <point x="94" y="623" type="curve" smooth="yes"/>
      <point x="32" y="33" type="line" smooth="yes"/>
      <point x="30" y="16"/>
      <point x="38" y="0"/>
    </contour>
  </outline>
</glyph>
<glyph name="T" format="2">
  <advance width="369"/>
  <unicode hex="0054"/>
  <outline>
    <contour>
      <point x="146" y="0" type="curve" smooth="yes"/>
      <point x="166" y="0"/>
      <point x="172" y="18"/>
      <point x="174" y="34" type="curve" smooth="yes"/>
      <point x="236" y="624" type="line"/>
      <point x="186" y="624" type="line"/>
      <point x="124" y="37" type="line" smooth="yes"/>
      <point x="122" y="17"/>
      <point x="127" y="0"/>
    </contour>
    <contour>
      <point x="18" y="625" type="curve" smooth="yes"/>
      <point x="18" y="613"/>
      <point x="26" y="600"/>
      <point x="46" y="600" type="curve" smooth="yes"/>
      <point x="380" y="600" type="line" smooth="yes"/>
      <point x="400" y="600"/>
      <point x="404" y="613"/>
      <point x="404" y="625" type="curve" smooth="yes"/>
      <point x="404" y="637"/>
      <point x="397" y="650"/>
      <point x="377" y="650" type="curve" smooth="yes"/>
      <point x="43" y="650" type="line" smooth="yes"/>
      <point x="23" y="650"/>
      <point x="18" y="637"/>
    </contour>
  </outline>
</glyph>
<glyph name="X" format="2">
  <advance width="438"/>
  <unicode hex="0058"/>
  <outline>
    <contour>
      <point x="-1" y="6" type="curve" smooth="yes"/>
      <point x="10" y="-3"/>
      <point x="27" y="-2"/>
      <point x="37" y="13" type="curve" smooth="yes"/>
      <point x="227" y="301" type="line"/>
      <point x="233" y="301" type="line"/>
      <point x="434" y="609" type="line" smooth="yes"/>
      <point x="444" y="624"/>
      <point x="441" y="638"/>
      <point x="432" y="645" type="curve" smooth="yes"/>
      <point x="421" y="653"/>
      <point x="402" y="652"/>
      <point x="392" y="637" type="curve" smooth="yes"/>
      <point x="207" y="352" type="line"/>
      <point x="200" y="351" type="line"/>
      <point x="-6" y="38" type="line" smooth="yes"/>
      <point x="-14" y="26"/>
      <point x="-11" y="13"/>
    </contour>
    <contour>
      <point x="365" y="3" type="curve" smooth="yes"/>
      <point x="374" y="8"/>
      <point x="381" y="20"/>
      <point x="374" y="35" type="curve" smooth="yes"/>
      <point x="235" y="345" type="line"/>
      <point x="107" y="631" type="line" smooth="yes"/>
      <point x="99" y="650"/>
      <point x="78" y="654"/>
      <point x="67" y="649" type="curve" smooth="yes"/>
      <point x="55" y="645"/>
      <point x="52" y="632"/>
      <point x="60" y="614" type="curve" smooth="yes"/>
      <point x="197" y="308" type="line"/>
      <point x="326" y="20" type="line" smooth="yes"/>
      <point x="334" y="1"/>
      <point x="352" y="-3"/>
    </contour>
  </outline>
</glyph>
<glyph name="backslash" format="2">
  <advance width="336"/>
  <unicode hex="005C"/>
  <outline>
    <contour>
      <point x="73" y="627" type="line" smooth="yes"/>
      <point x="67" y="644"/>
      <point x="56" y="650"/>
      <point x="45" y="650" type="curve" smooth="yes"/>
      <point x="30" y="650"/>
      <point x="14" y="637"/>
      <point x="22" y="616" type="curve" smooth="yes"/>
      <point x="249" y="-19" type="line" smooth="yes"/>
      <point x="254" y="-33"/>
      <point x="265" y="-39"/>
      <point x="276" y="-39" type="curve" smooth="yes"/>
      <point x="292" y="-39"/>
      <point x="307" y="-27"/>
      <point x="300" y="-8" type="curve" smooth="yes"/>
    </contour>
  </outline>
</glyph>
<glyph name="grave" format="2">
  <advance width="248"/>
  <unicode hex="0060"/>
  <outline>
    <contour>
      <point x="153" y="683" type="line" smooth="yes"/>
      <point x="146" y="696"/>
      <point x="133" y="701"/>
      <point x="122" y="701" type="curve" smooth="yes"/>
      <point x="106" y="700"/>
      <point x="92" y="686"/>
      <point x="107" y="664" type="curve" smooth="yes"/>
      <point x="167" y="572" type="line" smooth="yes"/>
      <point x="177" y="557"/>
      <point x="190" y="554"/>
      <point x="199" y="559" type="curve" smooth="yes"/>
      <point x="207" y="563"/>
      <point x="209" y="573"/>
      <point x="202" y="587" type="curve" smooth="yes"/>
    </contour>
  </outline>
</glyph>
<glyph name="j" format="2">
  <advance width="172"/>
  <unicode hex="006A"/>
  <outline>
    <contour>
      <point x="-198" y="-240" type="curve" smooth="yes"/>
      <point x="-208" y="-252"/>
      <point x="-205" y="-266"/>
      <point x="-194" y="-274" type="curve" smooth="yes"/>
      <point x="-176" y="-287"/>
      <point x="-142" y="-300"/>
      <point x="-106" y="-300" type="curve" smooth="yes"/>
      <point x="-55" y="-300"/>
      <point x="-19" y="-287"/>
      <point x="6" y="-263" type="curve" smooth="yes"/>
      <point x="47" y="-224"/>
      <point x="59" y="-156"/>
      <point x="65" y="-94" type="curve" smooth="yes"/>
      <point x="109" y="327" type="line" smooth="yes"/>
      <point x="111" y="344"/>
      <point x="99" y="351"/>
      <point x="82" y="351" type="curve" smooth="yes"/>
      <point x="71" y="351"/>
      <point x="60" y="340"/>
      <point x="59" y="329" type="curve" smooth="yes"/>
      <point x="15" y="-94" type="line" smooth="yes"/>
      <point x="11" y="-129"/>
      <point x="3" y="-197"/>
      <point x="-27" y="-226" type="curve" smooth="yes"/>
      <point x="-45" y="-245"/>
      <point x="-76" y="-250"/>
      <point x="-110" y="-250" type="curve" smooth="yes"/>
      <point x="-129" y="-250"/>
      <point x="-152" y="-240"/>
      <point x="-167" y="-233" type="curve" smooth="yes"/>
      <point x="-174" y="-230"/>
      <point x="-188" y="-228"/>
    </contour>
    <contour>
      <point x="97" y="426" type="curve" smooth="yes"/>
      <point x="116" y="426"/>
      <point x="129" y="442"/>
      <point x="129" y="462" type="curve" smooth="yes"/>
      <point x="129" y="481"/>
      <point x="116" y="495"/>
      <point x="97" y="495" type="curve" smooth="yes"/>
      <point x="79" y="495"/>
      <point x="62" y="481"/>
      <point x="62" y="462" type="curve" smooth="yes"/>
      <point x="62" y="442"/>
      <point x="79" y="426"/>
    </contour>
  </outline>
</glyph>
<glyph name="l" format="2">
  <advance width="173"/>
  <unicode hex="006C"/>
  <outline>
    <contour>
      <point x="50" y="0" type="curve" smooth="yes"/>
      <point x="61" y="0"/>
      <point x="73" y="7"/>
      <point x="74" y="22" type="curve" smooth="yes"/>
      <point x="138" y="624" type="line" smooth="yes"/>
      <point x="140" y="640"/>
      <point x="126" y="650"/>
      <point x="112" y="650" type="curve" smooth="yes"/>
      <point x="101" y="650"/>
      <point x="90" y="644"/>
      <point x="88" y="629" type="curve" smooth="yes"/>
      <point x="24" y="27" type="line" smooth="yes"/>
      <point x="22" y="9"/>
      <point x="36" y="0"/>
    </contour>
  </outline>
</glyph>
<glyph name="p" format="2">
  <advance width="325"/>
  <unicode hex="0070"/>
  <outline>
    <contour>
      <point x="2" y="-300" type="curve" smooth="yes"/>
      <point x="14" y="-300"/>
      <point x="26" y="-292"/>
      <point x="28" y="-277" type="curve" smooth="yes"/>
      <point x="93" y="327" type="line" smooth="yes"/>
      <point x="95" y="342"/>
      <point x="84" y="350"/>
      <point x="71" y="350" type="curve" smooth="yes"/>
      <point x="59" y="350"/>
      <point x="45" y="342"/>
      <point x="43" y="327" type="curve" smooth="yes"/>
      <point x="-22" y="-276" type="line" smooth="yes"/>
      <point x="-24" y="-292"/>
      <point x="-11" y="-300"/>
    </contour>
    <contour>
      <point x="283" y="228" type="curve" smooth="yes"/>
      <point x="283" y="328"/>
      <point x="242" y="353"/>
      <point x="204" y="353" type="curve" smooth="yes"/>
      <point x="150" y="353"/>
      <point x="106" y="304"/>
      <point x="70" y="240" type="curve"/>
      <point x="60" y="124" type="line"/>
      <point x="113" y="255"/>
      <point x="161" y="305"/>
      <point x="196" y="305" type="curve" smooth="yes"/>
      <point x="223" y="305"/>
      <point x="233" y="288"/>
      <point x="233" y="223" type="curve" smooth="yes"/>
      <point x="233" y="132"/>
      <point x="197" y="50.0"/>
      <point x="129" y="50" type="curve" smooth="yes"/>
      <point x="38" y="50" type="line"/>
      <point x="33" y="0" type="line"/>
      <point x="132" y="0" type="line" smooth="yes"/>
      <point x="228.0" y="0.0"/>
      <point x="283" y="111"/>
    </contour>
  </outline>
</glyph>
<glyph name="q" format="2">
  <advance width="336"/>
  <unicode hex="0071"/>
  <outline>
    <contour>
      <point x="318" y="-186" type="curve" smooth="yes"/>
      <point x="307" y="-180"/>
      <point x="293" y="-182"/>
      <point x="287" y="-196" type="curve" smooth="yes"/>
      <point x="271" y="-235"/>
      <point x="262" y="-252"/>
      <point x="247" y="-252" type="curve" smooth="yes"/>
      <point x="227" y="-252"/>
      <point x="226" y="-226"/>
      <point x="230" y="-191" type="curve" smooth="yes"/>
      <point x="284" y="327" type="line" smooth="yes"/>
      <point x="285" y="335"/>
      <point x="283" y="350"/>
      <point x="261" y="350" type="curve" smooth="yes"/>
      <point x="239" y="350" type="line"/>
      <point x="180" y="-181" type="line" smooth="yes"/>
      <point x="171" y="-262"/>
      <point x="196" y="-300"/>
      <point x="245" y="-300" type="curve" smooth="yes"/>
      <point x="292" y="-300"/>
      <point x="321" y="-246"/>
      <point x="330" y="-218" type="curve" smooth="yes"/>
      <point x="335" y="-203"/>
      <point x="328" y="-191"/>
    </contour>
    <contour>
      <point x="10" y="121" type="curve" smooth="yes"/>
      <point x="10" y="21"/>
      <point x="51" y="-4"/>
      <point x="89" y="-4" type="curve" smooth="yes"/>
      <point x="143" y="-4"/>
      <point x="189" y="58"/>
      <point x="225" y="122" type="curve"/>
      <point x="235" y="234" type="line"/>
      <point x="182" y="103"/>
      <point x="126" y="46"/>
      <point x="97" y="46" type="curve" smooth="yes"/>
      <point x="70" y="46"/>
      <point x="60" y="61"/>
      <point x="60" y="126" type="curve" smooth="yes"/>
      <point x="60" y="184"/>
      <point x="93" y="300"/>
      <point x="164" y="300" type="curve"/>
      <point x="238" y="300" type="line"/>
      <point x="243" y="350" type="line"/>
      <point x="161" y="350" type="line"/>
      <point x="58" y="350"/>
      <point x="10" y="211"/>
    </contour>
  </outline>
</glyph>
<glyph name="s" format="2">
  <advance width="296"/>
  <unicode hex="0073"/>
  <outline>
    <contour>
      <point x="135" y="-4" type="curve" smooth="yes"/>
      <point x="183" y="-4"/>
      <point x="228" y="22"/>
      <point x="236" y="73" type="curve" smooth="yes"/>
      <point x="243" y="115"/>
      <point x="225" y="146"/>
      <point x="205" y="162" type="curve" smooth="yes"/>
      <point x="180" y="183"/>
      <point x="152" y="201"/>
      <point x="126" y="216" type="curve" smooth="yes"/>
      <point x="88" y="238"/>
      <point x="73" y="256"/>
      <point x="79" y="276" type="curve" smooth="yes"/>
      <point x="85" y="296"/>
      <point x="107" y="302"/>
      <point x="132" y="302" type="curve" smooth="yes"/>
      <point x="167" y="302"/>
      <point x="194" y="288"/>
      <point x="211" y="276" type="curve" smooth="yes"/>
      <point x="227" y="265"/>
      <point x="242" y="262"/>
      <point x="251" y="276" type="curve" smooth="yes"/>
      <point x="260" y="289"/>
      <point x="250" y="310"/>
      <point x="231" y="322" type="curve" smooth="yes"/>
      <point x="198" y="343"/>
      <point x="166" y="351"/>
      <point x="139" y="351" type="curve" smooth="yes"/>
      <point x="84" y="351"/>
      <point x="44" y="334"/>
      <point x="31" y="289" type="curve" smooth="yes"/>
      <point x="18" y="244"/>
      <point x="49" y="204"/>
      <point x="95" y="176" type="curve" smooth="yes"/>
      <point x="123" y="159"/>
      <point x="145" y="147"/>
      <point x="163" y="133" type="curve" smooth="yes"/>
      <point x="177" y="122"/>
      <point x="192" y="102"/>
      <point x="187" y="80" type="curve" smooth="yes"/>
      <point x="181" y="55"/>
      <point x="162" y="46"/>
      <point x="137" y="46" type="curve" smooth="yes"/>
      <point x="100" y="46"/>
      <point x="63" y="69"/>
      <point x="48" y="81" type="curve" smooth="yes"/>
      <point x="34" y="92"/>
      <point x="20" y="89"/>
      <point x="10" y="74" type="curve" smooth="yes"/>
      <point x="0" y="59"/>
      <point x="11" y="47"/>
      <point x="28" y="34" type="curve" smooth="yes"/>
      <point x="48" y="19"/>
      <point x="92" y="-4"/>
    </contour>
  </outline>
</glyph>
<glyph name="x" format="2">
  <advance width="286"/>
  <unicode hex="0078"/>
  <outline>
    <contour>
      <point x="4" y="0" type="curve" smooth="yes"/>
      <point x="12" y="0"/>
      <point x="19" y="6"/>
      <point x="28" y="18" type="curve" smooth="yes"/>
      <point x="130" y="153" type="line"/>
      <point x="133" y="158" type="line"/>
      <point x="243" y="304" type="line" smooth="yes"/>
      <point x="251" y="314"/>
      <point x="255" y="323"/>
      <point x="255" y="330" type="curve" smooth="yes"/>
      <point x="255" y="341"/>
      <point x="240" y="350"/>
      <point x="228" y="350" type="curve" smooth="yes"/>
      <point x="221" y="350"/>
      <point x="213" y="347"/>
      <point x="206" y="338" type="curve" smooth="yes"/>
      <point x="105" y="203" type="line"/>
      <point x="102" y="198" type="line"/>
      <point x="-9" y="49" type="line" smooth="yes"/>
      <point x="-20" y="34"/>
      <point x="-23" y="29"/>
      <point x="-23" y="22" type="curve" smooth="yes"/>
      <point x="-23" y="10"/>
      <point x="-7" y="0"/>
    </contour>
    <contour>
      <point x="197" y="0" type="curve" smooth="yes"/>
      <point x="210" y="0"/>
      <point x="224" y="10"/>
      <point x="224" y="24" type="curve" smooth="yes"/>
      <point x="224" y="30"/>
      <point x="218" y="41"/>
      <point x="214" y="49" type="curve" smooth="yes"/>
      <point x="135" y="195" type="line"/>
      <point x="61" y="333" type="line" smooth="yes"/>
      <point x="55" y="343"/>
      <point x="46" y="350"/>
      <point x="36" y="350" type="curve" smooth="yes"/>
      <point x="24" y="350"/>
      <point x="10" y="339"/>
      <point x="10" y="327" type="curve" smooth="yes"/>
      <point x="10" y="321"/>
      <point x="14" y="314"/>
      <point x="17" y="309" type="curve" smooth="yes"/>
      <point x="100" y="155" type="line"/>
      <point x="173" y="21" type="line" smooth="yes"/>
      <point x="182" y="5"/>
      <point x="189" y="0"/>
    </contour>
  </outline>
</glyph>
<glyph name="exclamdown" format="2">
  <advance width="196"/>
  <unicode hex="00A1"/>
  <outline>
    <contour>
      <point x="130" y="424" type="line" smooth="yes"/>
      <point x="132" y="441"/>
      <point x="120" y="450"/>
      <point x="107" y="451" type="curve" smooth="yes"/>
      <point x="95" y="452"/>
      <point x="81" y="443"/>
      <point x="79" y="424" type="curve" smooth="yes"/>
      <point x="34" y="21" type="line" smooth="yes"/>
      <point x="32" y="6"/>
      <point x="44" y="-1"/>
      <point x="57" y="0" type="curve" smooth="yes"/>
      <point x="69" y="0"/>
      <point x="83" y="7"/>
      <point x="85" y="21" type="curve" smooth="yes"/>
    </contour>
    <contour>
      <point x="130" y="585" type="curve" smooth="yes"/>
      <point x="148" y="585"/>
      <point x="160" y="601"/>
      <point x="159" y="617" type="curve" smooth="yes"/>
      <point x="158" y="633"/>
      <point x="144" y="650"/>
      <point x="126" y="650" type="curve" smooth="yes"/>
      <point x="108" y="650"/>
      <point x="93" y="634"/>
      <point x="94" y="617" type="curve" smooth="yes"/>
      <point x="95" y="600"/>
      <point x="112" y="585"/>
    </contour>
  </outline>
</glyph>
<glyph name="degree" format="2">
  <advance width="272"/>
  <unicode hex="00B0"/>
  <outline>
    <contour>
      <point x="131" y="433" type="curve" smooth="yes"/>
      <point x="195" y="433"/>
      <point x="254" y="532"/>
      <point x="249" y="595" type="curve" smooth="yes"/>
      <point x="247" y="634"/>
      <point x="222" y="655"/>
      <point x="177" y="655" type="curve" smooth="yes"/>
      <point x="140" y="655"/>
      <point x="116" y="630"/>
      <point x="103" y="604" type="curve" smooth="yes"/>
      <point x="93" y="583"/>
      <point x="79" y="543"/>
      <point x="82" y="496" type="curve" smooth="yes"/>
      <point x="86" y="449"/>
      <point x="104" y="433"/>
    </contour>
    <contour>
      <point x="135" y="472" type="curve" smooth="yes"/>
      <point x="123" y="472"/>
      <point x="122" y="486"/>
      <point x="121" y="503" type="curve" smooth="yes"/>
      <point x="119" y="530"/>
      <point x="129" y="559"/>
      <point x="141" y="588" type="curve"/>
      <point x="151" y="608"/>
      <point x="161" y="615"/>
      <point x="178" y="615" type="curve" smooth="yes"/>
      <point x="200" y="615"/>
      <point x="208" y="609"/>
      <point x="210" y="588" type="curve" smooth="yes"/>
      <point x="213" y="550"/>
      <point x="166" y="472"/>
    </contour>
  </outline>
</glyph>
<glyph name="periodcentered" format="2">
  <advance width="164"/>
  <unicode hex="00B7"/>
  <outline>
    <contour>
      <point x="65" y="138" type="curve" smooth="yes"/>
      <point x="85" y="138"/>
      <point x="102" y="157"/>
      <point x="101" y="177" type="curve" smooth="yes"/>
      <point x="99" y="198"/>
      <point x="80" y="214"/>
      <point x="60" y="214" type="curve" smooth="yes"/>
      <point x="39" y="214"/>
      <point x="24" y="197"/>
      <point x="26" y="177" type="curve" smooth="yes"/>
      <point x="27" y="158"/>
      <point x="44" y="138"/>
    </contour>
  </outline>
</glyph>
<glyph name="questiondown" format="2">
  <advance width="450"/>
  <unicode hex="00BF"/>
  <outline>
    <contour>
      <point x="275" y="382" type="line"/>
      <point x="119" y="382"/>
      <point x="58" y="290"/>
      <point x="42" y="151" type="curve" smooth="yes"/>
      <point x="34" y="72"/>
      <point x="107" y="0"/>
      <point x="198" y="0" type="curve" smooth="yes"/>
      <point x="313" y="0"/>
      <point x="373" y="64"/>
      <point x="383" y="159" type="curve" smooth="yes"/>
      <point x="385" y="181"/>
      <point x="379" y="194"/>
      <point x="368" y="197" type="curve" smooth="yes"/>
      <point x="355" y="200"/>
      <point x="336" y="191"/>
      <point x="333" y="169" type="curve" smooth="yes"/>
      <point x="327" y="112"/>
      <point x="294" y="50"/>
      <point x="209" y="50" type="curve" smooth="yes"/>
      <point x="143" y="50"/>
      <point x="86" y="86"/>
      <point x="93" y="147" type="curve" smooth="yes"/>
      <point x="98" y="193"/>
      <point x="112" y="332"/>
      <point x="274" y="332" type="curve"/>
    </contour>
    <contour>
      <point x="310" y="452" type="line" smooth="yes"/>
      <point x="311" y="466"/>
      <point x="301" y="476"/>
      <point x="289" y="479" type="curve" smooth="yes"/>
      <point x="275" y="481"/>
      <point x="262" y="474"/>
      <point x="259" y="452" type="curve" smooth="yes"/>
      <point x="248" y="351" type="line" smooth="yes"/>
      <point x="248" y="344"/>
      <point x="256" y="332"/>
      <point x="276" y="332" type="curve" smooth="yes"/>
      <point x="287" y="332"/>
      <point x="298" y="340"/>
      <point x="299" y="351" type="curve" smooth="yes"/>
    </contour>
    <contour>
      <point x="306" y="585" type="curve" smooth="yes"/>
      <point x="323" y="585"/>
      <point x="336" y="601"/>
      <point x="335" y="619" type="curve" smooth="yes"/>
      <point x="334" y="634"/>
      <point x="319" y="650"/>
      <point x="302" y="650" type="curve" smooth="yes"/>
      <point x="284" y="650"/>
      <point x="269" y="635"/>
      <point x="270" y="619" type="curve" smooth="yes"/>
      <point x="271" y="600"/>
      <point x="287" y="585"/>
    </contour>
  </outline>
</glyph>
<glyph name="emdash" format="2">
  <advance width="473"/>
  <unicode hex="2014"/>
  <outline>
    <contour>
      <point x="383" y="175" type="line" smooth="yes"/>
      <point x="403" y="175"/>
      <point x="413" y="187"/>
      <point x="412" y="199" type="curve" smooth="yes"/>
      <point x="411" y="209"/>
      <point x="401" y="220"/>
      <point x="380" y="220" type="curve" smooth="yes"/>
      <point x="57" y="220" type="line" smooth="yes"/>
      <point x="37" y="220"/>
      <point x="27" y="209"/>
      <point x="28" y="199" type="curve" smooth="yes"/>
      <point x="29" y="187"/>
      <point x="41" y="175"/>
      <point x="60" y="175" type="curve" smooth="yes"/>
    </contour>
  </outline>
</glyph>
<glyph name="bullet" format="2">
  <advance width="240"/>
  <unicode hex="2022"/>
  <outline>
    <contour>
      <point x="124" y="278" type="curve" smooth="yes"/>
      <point x="164" y="278"/>
      <point x="198" y="314"/>
      <point x="195" y="355" type="curve" smooth="yes"/>
      <point x="192" y="396"/>
      <point x="154" y="430"/>
      <point x="114" y="430" type="curve" smooth="yes"/>
      <point x="72" y="430"/>
      <point x="42" y="395"/>
      <point x="45" y="355" type="curve" smooth="yes"/>
      <point x="48" y="316"/>
      <point x="82" y="278"/>
    </contour>
  </outline>
</glyph>
<glyph name="infinity" format="2">
  <advance width="652"/>
  <unicode hex="221E"/>
  <outline>
    <contour>
      <point x="274" y="213" type="line"/>
      <point x="286" y="196" type="line" smooth="yes"/>
      <point x="323" y="146"/>
      <point x="376" y="90"/>
      <point x="434" y="80" type="curve" smooth="yes"/>
      <point x="499" y="69"/>
      <point x="592" y="109"/>
      <point x="603" y="211" type="curve" smooth="yes"/>
      <point x="614" y="307"/>
      <point x="539" y="349"/>
      <point x="481" y="359" type="curve" smooth="yes"/>
      <point x="428" y="368"/>
      <point x="352" y="356"/>
      <point x="276" y="279" type="curve"/>
    </contour>
    <contour>
      <point x="279" y="280" type="line"/>
      <point x="225" y="214"/>
      <point x="120" y="123"/>
      <point x="95" y="127" type="curve" smooth="yes"/>
      <point x="76" y="130"/>
      <point x="72" y="191"/>
      <point x="75" y="227" type="curve" smooth="yes"/>
      <point x="79" y="267"/>
      <point x="99" y="322"/>
      <point x="156" y="312" type="curve" smooth="yes"/>
      <point x="198" y="305"/>
      <point x="228" y="267"/>
      <point x="248" y="241" type="curve"/>
      <point x="278" y="279" type="line"/>
      <point x="254" y="309"/>
      <point x="222" y="352"/>
      <point x="167" y="361" type="curve" smooth="yes"/>
      <point x="80" y="377"/>
      <point x="32" y="298"/>
      <point x="24" y="226" type="curve" smooth="yes"/>
      <point x="18" y="168"/>
      <point x="36" y="90"/>
      <point x="90" y="81" type="curve" smooth="yes"/>
      <point x="147" y="71"/>
      <point x="218" y="140"/>
      <point x="282" y="210" type="curve"/>
    </contour>
    <contour>
      <point x="313" y="241" type="line"/>
      <point x="376" y="307"/>
      <point x="430" y="319"/>
      <point x="469" y="312" type="curve" smooth="yes"/>
      <point x="518" y="303"/>
      <point x="560" y="263"/>
      <point x="554" y="214" type="curve" smooth="yes"/>
      <point x="548" y="158"/>
      <point x="483" y="123"/>
      <point x="440" y="130" type="curve" smooth="yes"/>
      <point x="398" y="137"/>
      <point x="355" y="186"/>
      <point x="324" y="227" type="curve" smooth="yes"/>
    </contour>
  </outline>
</glyph>
<glyph name="notequal" format="2">
  <advance width="370"/>
  <unicode hex="2260"/>
  <outline>
    <contour>
      <point x="239" y="312" type="line" smooth="yes"/>
      <point x="249" y="337"/>
      <point x="237" y="350"/>
      <point x="223" y="350" type="curve" smooth="yes"/>
      <point x="213" y="350"/>
      <point x="203" y="345"/>
      <point x="198" y="333" type="curve" smooth="yes"/>
      <point x="95" y="72" type="line" smooth="yes"/>
      <point x="88" y="54"/>
      <point x="97" y="42"/>
      <point x="108" y="38" type="curve" smooth="yes"/>
      <point x="119" y="35"/>
      <point x="131" y="38"/>
      <point x="136" y="51" type="curve" smooth="yes"/>
    </contour>
    <contour>
      <point x="275" y="97" type="line" smooth="yes"/>
      <point x="293" y="97"/>
      <point x="301" y="108"/>
      <point x="301" y="120" type="curve" smooth="yes"/>
      <point x="300" y="131"/>
      <point x="290" y="142"/>
      <point x="272" y="142" type="curve" smooth="yes"/>
      <point x="45" y="142" type="line" smooth="yes"/>
      <point x="27" y="142"/>
      <point x="19" y="131"/>
      <point x="20" y="120" type="curve" smooth="yes"/>
      <point x="20" y="109"/>
      <point x="30" y="97"/>
      <point x="48" y="97" type="curve" smooth="yes"/>
    </contour>
    <contour>
      <point x="291" y="248" type="line" smooth="yes"/>
      <point x="309" y="248"/>
      <point x="317" y="260"/>
      <point x="316" y="271" type="curve" smooth="yes"/>
      <point x="315" y="282"/>
      <point x="306" y="293"/>
      <point x="288" y="293" type="curve" smooth="yes"/>
      <point x="61" y="293" type="line" smooth="yes"/>
      <point x="43" y="293"/>
      <point x="34" y="282"/>
      <point x="35" y="271" type="curve" smooth="yes"/>
      <point x="36" y="260"/>
      <point x="46" y="248"/>
      <point x="64" y="248" type="curve" smooth="yes"/>
    </contour>
  </outline>
</glyph>
<glyph name="lessequal" format="2">
  <advance width="348"/>
  <unicode hex="2264"/>
  <outline>
    <contour>
      <point x="289" y="324" type="line" smooth="yes"/>
      <point x="305" y="332"/>
      <point x="306" y="348"/>
      <point x="297" y="359" type="curve" smooth="yes"/>
      <point x="288" y="369"/>
      <point x="276" y="369"/>
      <point x="260" y="360" type="curve" smooth="yes"/>
      <point x="42" y="243" type="line" smooth="yes"/>
      <point x="28" y="235"/>
      <point x="28" y="223"/>
      <point x="37" y="212" type="curve" smooth="yes"/>
      <point x="45" y="202"/>
      <point x="56" y="199"/>
      <point x="71" y="207" type="curve" smooth="yes"/>
    </contour>
    <contour>
      <point x="253" y="97" type="line" smooth="yes"/>
      <point x="271" y="97"/>
      <point x="279" y="109"/>
      <point x="279" y="120" type="curve" smooth="yes"/>
      <point x="278" y="131"/>
      <point x="268" y="142"/>
      <point x="250" y="142" type="curve" smooth="yes"/>
      <point x="46" y="142" type="line" smooth="yes"/>
      <point x="28" y="142"/>
      <point x="20" y="131"/>
      <point x="21" y="120" type="curve" smooth="yes"/>
      <point x="21" y="108"/>
      <point x="31" y="97"/>
      <point x="49" y="97" type="curve" smooth="yes"/>
    </contour>
    <contour>
      <point x="52" y="202" type="line"/>
      <point x="265" y="202" type="line" smooth="yes"/>
      <point x="281" y="202"/>
      <point x="290" y="213"/>
      <point x="289" y="225" type="curve" smooth="yes"/>
      <point x="289" y="236"/>
      <point x="279" y="248"/>
      <point x="256" y="248" type="curve" smooth="yes"/>
      <point x="50" y="248" type="line"/>
    </contour>
  </outline>
</glyph>
<glyph name="Q.ss01" format="2">
  <advance width="537"/>
  <outline>
    <contour>
      <point x="196" y="97" type="curve" smooth="yes"/>
      <point x="325" y="-26" type="line" smooth="yes"/>
      <point x="337" y="-37"/>
      <point x="354" y="-47"/>
      <point x="376" y="-47" type="curve" smooth="yes"/>
      <point x="409" y="-47"/>
      <point x="421" y="-30"/>
      <point x="440" y="3" type="curve" smooth="yes"/>
      <point x="456" y="32"/>
      <point x="459" y="39"/>
      <point x="458" y="47" type="curve" smooth="yes"/>
      <point x="457" y="62"/>
      <point x="445" y="69"/>
      <point x="434" y="69" type="curve" smooth="yes"/>
      <point x="422" y="69"/>
      <point x="414" y="61"/>
      <point x="412" y="57" type="curve" smooth="yes"/>
      <point x="400" y="34" type="line" smooth="yes"/>
      <point x="388" y="12"/>
      <point x="383" y="-1"/>
      <point x="376" y="-1" type="curve" smooth="yes"/>
      <point x="372" y="-1"/>
      <point x="365" y="7"/>
      <point x="360" y="11" type="curve" smooth="yes"/>
      <point x="230" y="134" type="line" smooth="yes"/>
      <point x="217" y="146"/>
      <point x="198" y="149"/>
      <point x="187" y="135" type="curve" smooth="yes"/>
      <point x="178" y="125"/>
      <point x="182" y="111"/>
    </contour>
    <contour>
      <point x="175" y="-4" type="curve" smooth="yes"/>
      <point x="336" y="-4"/>
      <point x="441" y="250"/>
      <point x="459" y="438" type="curve" smooth="yes"/>
      <point x="470" y="551"/>
      <point x="409" y="650"/>
      <point x="281" y="650" type="curve" smooth="yes"/>
      <point x="158" y="650"/>
      <point x="105" y="557"/>
      <point x="73" y="409" type="curve" smooth="yes"/>
      <point x="65" y="369"/>
      <point x="59" y="322"/>
      <point x="59" y="278" type="curve" smooth="yes"/>
      <point x="56" y="143"/>
      <point x="88" y="-4"/>
    </contour>
    <contour>
      <point x="171" y="42" type="curve" smooth="yes"/>
      <point x="124" y="42"/>
      <point x="108" y="178"/>
      <point x="108" y="268" type="curve" smooth="yes"/>
      <point x="109" y="310"/>
      <point x="113" y="355"/>
      <point x="120" y="388" type="curve" smooth="yes"/>
      <point x="148" y="526"/>
      <point x="190" y="604"/>
      <point x="277" y="604" type="curve" smooth="yes"/>
      <point x="398" y="604"/>
      <point x="417" y="511"/>
      <point x="408" y="425" type="curve" smooth="yes"/>
      <point x="391" y="263"/>
      <point x="292" y="42"/>
    </contour>
  </outline>
</glyph>
<glyph name="R.ss01" format="2">
  <advance width="537"/>
  <outline>
    <contour>
      <point x="98" y="304" type="line"/>
      <point x="288" y="304"/>
      <point x="450" y="321"/>
      <point x="466" y="476" type="curve" smooth="yes"/>
      <point x="478" y="597"/>
      <point x="344" y="650"/>
      <point x="127" y="650" type="curve"/>
      <point x="130" y="604" type="line"/>
      <point x="323" y="604"/>
      <point x="425" y="560"/>
      <point x="416" y="481" type="curve" smooth="yes"/>
      <point x="404" y="368"/>
      <point x="263" y="350"/>
      <point x="102" y="350" type="curve"/>
    </contour>
    <contour>
      <point x="97" y="319" type="line"/>
      <point x="369" y="15" type="line" smooth="yes"/>
      <point x="375" y="8"/>
      <point x="392" y="-4"/>
      <point x="413" y="-4" type="curve" smooth="yes"/>
      <point x="446" y="-4"/>
      <point x="458" y="13"/>
      <point x="477" y="46" type="curve" smooth="yes"/>
      <point x="493" y="75"/>
      <point x="496" y="82"/>
      <point x="495" y="90" type="curve" smooth="yes"/>
      <point x="494" y="105"/>
      <point x="482" y="112"/>
      <point x="471" y="112" type="curve" smooth="yes"/>
      <point x="459" y="112"/>
      <point x="451" y="104"/>
      <point x="449" y="100" type="curve" smooth="yes"/>
      <point x="437" y="77" type="line" smooth="yes"/>
      <point x="425" y="55"/>
      <point x="419" y="42"/>
      <point x="416" y="42" type="curve" smooth="yes"/>
      <point x="412" y="42"/>
      <point x="408" y="47"/>
      <point x="405" y="50" type="curve" smooth="yes"/>
      <point x="164" y="319" type="line"/>
    </contour>
    <contour>
      <point x="144" y="619" type="line" smooth="yes"/>
      <point x="146" y="637"/>
      <point x="144" y="650"/>
      <point x="123" y="650" type="curve" smooth="yes"/>
      <point x="101" y="650"/>
      <point x="96" y="639"/>
      <point x="94" y="623" type="curve" smooth="yes"/>
      <point x="32" y="33" type="line" smooth="yes"/>
      <point x="30" y="16"/>
      <point x="38" y="0"/>
      <point x="56" y="0" type="curve" smooth="yes"/>
      <point x="78" y="0"/>
      <point x="80" y="16"/>
      <point x="82" y="31" type="curve" smooth="yes"/>
    </contour>
  </outline>
</glyph>
<glyph name="a.ss01" format="2">
  <advance width="389"/>
  <outline>
    <contour>
      <point x="228" y="109" type="curve"/>
      <point x="241" y="241" type="line"/>
      <point x="188" y="110"/>
      <point x="131" y="46"/>
      <point x="102" y="46" type="curve" smooth="yes"/>
      <point x="75" y="46"/>
      <point x="65" y="61"/>
      <point x="65" y="126" type="curve" smooth="yes"/>
      <point x="65" y="184"/>
      <point x="98" y="300"/>
      <point x="169" y="300" type="curve" smooth="yes"/>
      <point x="182" y="300"/>
      <point x="235" y="300"/>
      <point x="243" y="300" type="curve"/>
      <point x="248" y="350" type="line"/>
      <point x="236" y="350"/>
      <point x="182" y="350"/>
      <point x="166" y="350" type="curve" smooth="yes"/>
      <point x="63" y="350"/>
      <point x="15" y="211"/>
      <point x="15" y="121" type="curve" smooth="yes"/>
      <point x="15" y="21"/>
      <point x="56" y="-4"/>
      <point x="94" y="-4" type="curve" smooth="yes"/>
      <point x="148" y="-4"/>
      <point x="192" y="45"/>
    </contour>
    <contour>
      <point x="288" y="316" type="line" smooth="yes"/>
      <point x="290" y="336"/>
      <point x="282" y="350"/>
      <point x="240" y="350" type="curve"/>
      <point x="219" y="146" type="line" smooth="yes"/>
      <point x="212" y="78"/>
      <point x="219" y="0"/>
      <point x="289" y="0" type="curve" smooth="yes"/>
      <point x="322" y="0"/>
      <point x="334" y="17"/>
      <point x="353" y="50" type="curve" smooth="yes"/>
      <point x="369" y="79"/>
      <point x="372" y="86"/>
      <point x="371" y="94" type="curve" smooth="yes"/>
      <point x="370" y="109"/>
      <point x="358" y="116"/>
      <point x="347" y="116" type="curve" smooth="yes"/>
      <point x="335" y="116"/>
      <point x="327" y="108"/>
      <point x="325" y="104" type="curve" smooth="yes"/>
      <point x="313" y="81" type="line" smooth="yes"/>
      <point x="301" y="59"/>
      <point x="292" y="46"/>
      <point x="285" y="46" type="curve" smooth="yes"/>
      <point x="265" y="46"/>
      <point x="267" y="124"/>
      <point x="268" y="132" type="curve" smooth="yes"/>
    </contour>
  </outline>
</glyph>
<glyph name="asciicircum.c2sc" format="2">
  <advance width="410"/>
  <outline>
    <contour>
      <point x="235" y="424" type="line" smooth="yes"/>
      <point x="248" y="436"/>
      <point x="245" y="451"/>
      <point x="235" y="459" type="curve" smooth="yes"/>
      <point x="225" y="468"/>
      <point x="209" y="471"/>
      <point x="196" y="459" type="curve" smooth="yes"/>
      <point x="71" y="348" type="line" smooth="yes"/>
      <point x="60" y="338"/>
      <point x="63" y="323"/>
      <point x="71" y="314" type="curve" smooth="yes"/>
      <point x="81" y="305"/>
      <point x="96" y="301"/>
      <point x="111" y="314" type="curve" smooth="yes"/>
    </contour>
    <contour>
      <point x="236" y="458" type="line"/>
      <point x="199" y="426" type="line"/>
      <point x="300" y="316" type="line" smooth="yes"/>
      <point x="312" y="303"/>
      <point x="327" y="305"/>
      <point x="335" y="313" type="curve" smooth="yes"/>
      <point x="345" y="321"/>
      <point x="347" y="337"/>
      <point x="336" y="349" type="curve" smooth="yes"/>
    </contour>
  </outline>
</glyph>
<glyph name="b.sc" format="2">
  <advance width="360"/>
  <outline>
    <contour>
      <point x="117" y="363" type="line" smooth="yes"/>
      <point x="119" y="384"/>
      <point x="108" y="396"/>
      <point x="93" y="396" type="curve" smooth="yes"/>
      <point x="78" y="396"/>
      <point x="69" y="387"/>
      <point x="67" y="369" type="curve" smooth="yes"/>
      <point x="32" y="32" type="line" smooth="yes"/>
      <point x="30" y="15"/>
      <point x="42" y="0"/>
      <point x="58" y="0" type="curve" smooth="yes"/>
      <point x="70" y="0"/>
      <point x="80" y="8"/>
      <point x="82" y="27" type="curve" smooth="yes"/>
    </contour>
    <contour>
      <point x="56" y="0" type="line"/>
      <point x="214" y="-1"/>
      <point x="277" y="18"/>
      <point x="286" y="92" type="curve" smooth="yes"/>
      <point x="294" y="175"/>
      <point x="201" y="224"/>
      <point x="91" y="224" type="curve"/>
      <point x="87" y="171" type="line"/>
      <point x="185" y="171"/>
      <point x="241" y="144"/>
      <point x="237" y="100" type="curve" smooth="yes"/>
      <point x="232" y="59"/>
      <point x="171" y="49"/>
      <point x="61" y="50" type="curve"/>
    </contour>
    <contour>
      <point x="90" y="171" type="line"/>
      <point x="266" y="171"/>
      <point x="298" y="212"/>
      <point x="305" y="281" type="curve" smooth="yes"/>
      <point x="314" y="360"/>
      <point x="211" y="396"/>
      <point x="92" y="396" type="curve"/>
      <point x="86" y="345" type="line"/>
      <point x="189" y="346"/>
      <point x="260" y="329"/>
      <point x="255" y="286" type="curve" smooth="yes"/>
      <point x="252" y="247"/>
      <point x="234" y="224"/>
      <point x="95" y="224" type="curve"/>
    </contour>
  </outline>
</glyph>
<glyph name="c.sc" format="2">
  <advance width="359"/>
  <outline>
    <contour>
      <point x="289" y="131" type="curve" smooth="yes"/>
      <point x="294" y="141"/>
      <point x="284" y="154"/>
      <point x="277" y="158" type="curve" smooth="yes"/>
      <point x="269" y="162"/>
      <point x="251" y="165"/>
      <point x="245" y="154" type="curve" smooth="yes"/>
      <point x="215" y="96"/>
      <point x="169" y="46"/>
      <point x="143" y="46" type="curve" smooth="yes"/>
      <point x="110" y="46"/>
      <point x="95" y="119"/>
      <point x="95" y="169" type="curve" smooth="yes"/>
      <point x="95" y="227"/>
      <point x="134" y="346"/>
      <point x="213" y="346" type="curve" smooth="yes"/>
      <point x="231" y="346"/>
      <point x="261" y="343"/>
      <point x="274" y="338" type="curve" smooth="yes"/>
      <point x="286" y="333"/>
      <point x="302" y="335"/>
      <point x="310" y="352" type="curve" smooth="yes"/>
      <point x="317" y="367"/>
      <point x="313" y="378"/>
      <point x="299" y="383" type="curve" smooth="yes"/>
      <point x="280" y="390"/>
      <point x="240" y="396"/>
      <point x="213" y="396" type="curve" smooth="yes"/>
      <point x="100" y="396"/>
      <point x="45" y="249"/>
      <point x="45" y="169" type="curve" smooth="yes"/>
      <point x="45" y="62"/>
      <point x="87" y="-4"/>
      <point x="143" y="-4" type="curve" smooth="yes"/>
      <point x="196" y="-4"/>
      <point x="253" y="60"/>
    </contour>
  </outline>
</glyph>
<glyph name="eight.c2sc" format="2">
  <advance width="366"/>
  <outline>
    <contour>
      <point x="159" y="229" type="line"/>
      <point x="108" y="231" type="line"/>
      <point x="47" y="184"/>
      <point x="33" y="132"/>
      <point x="35" y="94" type="curve" smooth="yes"/>
      <point x="38" y="53"/>
      <point x="64" y="-4"/>
      <point x="134" y="-4" type="curve" smooth="yes"/>
      <point x="209" y="-4"/>
      <point x="246" y="59"/>
      <point x="243" y="106" type="curve" smooth="yes"/>
      <point x="240" y="147"/>
      <point x="204" y="187"/>
      <point x="172" y="217" type="curve" smooth="yes"/>
    </contour>
    <contour>
      <point x="138" y="184" type="line" smooth="yes"/>
      <point x="163" y="161"/>
      <point x="191" y="131"/>
      <point x="193" y="106" type="curve" smooth="yes"/>
      <point x="194" y="79"/>
      <point x="169" y="44"/>
      <point x="135" y="44" type="curve" smooth="yes"/>
      <point x="106" y="44"/>
      <point x="86" y="68"/>
      <point x="84" y="99" type="curve" smooth="yes"/>
      <point x="82" y="124"/>
      <point x="92" y="154"/>
      <point x="135" y="187" type="curve"/>
    </contour>
    <contour>
      <point x="159" y="208" type="line"/>
      <point x="214" y="246"/>
      <point x="269" y="291"/>
      <point x="266" y="333" type="curve" smooth="yes"/>
      <point x="263" y="374"/>
      <point x="206" y="396"/>
      <point x="164" y="396" type="curve" smooth="yes"/>
      <point x="112" y="396"/>
      <point x="51" y="366"/>
      <point x="56" y="302" type="curve" smooth="yes"/>
      <point x="59" y="259"/>
      <point x="93" y="230"/>
      <point x="111" y="214" type="curve"/>
      <point x="151" y="239" type="line"/>
      <point x="134" y="254"/>
      <point x="108" y="275"/>
      <point x="106" y="306" type="curve" smooth="yes"/>
      <point x="103" y="339"/>
      <point x="135" y="348"/>
      <point x="161" y="348" type="curve" smooth="yes"/>
      <point x="185" y="348"/>
      <point x="218" y="340"/>
      <point x="219" y="333" type="curve" smooth="yes"/>
      <point x="220" y="317"/>
      <point x="145" y="252"/>
      <point x="100" y="227" type="curve"/>
    </contour>
  </outline>
</glyph>
<glyph name="f.sc" format="2">
  <advance width="328"/>
  <outline>
    <contour>
      <point x="118" y="368" type="line" smooth="yes"/>
      <point x="120" y="384"/>
      <point x="111" y="396"/>
      <point x="94" y="396" type="curve" smooth="yes"/>
      <point x="77" y="396"/>
      <point x="70" y="387"/>
      <point x="69" y="374" type="curve" smooth="yes"/>
      <point x="32" y="29" type="line" smooth="yes"/>
      <point x="30" y="14"/>
      <point x="40" y="0"/>
      <point x="57" y="0" type="curve" smooth="yes"/>
      <point x="75" y="0"/>
      <point x="80" y="13"/>
      <point x="81" y="23" type="curve" smooth="yes"/>
    </contour>
    <contour>
      <point x="86" y="190" type="line"/>
      <point x="257" y="190" type="line" smooth="yes"/>
      <point x="273" y="190"/>
      <point x="280" y="200"/>
      <point x="280" y="214" type="curve" smooth="yes"/>
      <point x="280" y="228"/>
      <point x="269" y="238"/>
      <point x="253" y="238" type="curve" smooth="yes"/>
      <point x="90" y="238" type="line"/>
    </contour>
    <contour>
      <point x="105" y="346" type="line"/>
      <point x="293" y="346" type="line" smooth="yes"/>
      <point x="310" y="346"/>
      <point x="316" y="360"/>
      <point x="316" y="374" type="curve" smooth="yes"/>
      <point x="316" y="387"/>
      <point x="306" y="396"/>
      <point x="289" y="396" type="curve" smooth="yes"/>
      <point x="94" y="396" type="line"/>
    </contour>
  </outline>
</glyph>
<glyph name="f.ss01" format="2">
  <advance width="268"/>
  <outline>
    <contour>
      <point x="281" y="596" type="curve" smooth="yes"/>
      <point x="289" y="594"/>
      <point x="307" y="592"/>
      <point x="314" y="611" type="curve" smooth="yes"/>
      <point x="321" y="629"/>
      <point x="309" y="639"/>
      <point x="301" y="642" type="curve" smooth="yes"/>
      <point x="284" y="647"/>
      <point x="265" y="650"/>
      <point x="246" y="650" type="curve" smooth="yes"/>
      <point x="196" y="650"/>
      <point x="146" y="616"/>
      <point x="137" y="527" type="curve" smooth="yes"/>
      <point x="52" y="-273" type="line" smooth="yes"/>
      <point x="51" y="-285"/>
      <point x="60" y="-301"/>
      <point x="78" y="-301" type="curve" smooth="yes"/>
      <point x="95" y="-301"/>
      <point x="101" y="-286"/>
      <point x="102" y="-274" type="curve" smooth="yes"/>
      <point x="186" y="518" type="line" smooth="yes"/>
      <point x="192" y="578"/>
      <point x="216" y="600"/>
      <point x="249" y="600" type="curve" smooth="yes"/>
      <point x="260" y="600"/>
      <point x="271" y="599"/>
    </contour>
    <contour>
      <point x="242" y="305" type="line" smooth="yes"/>
      <point x="262" y="305"/>
      <point x="266" y="316"/>
      <point x="266" y="328" type="curve" smooth="yes"/>
      <point x="266" y="340"/>
      <point x="259" y="350"/>
      <point x="239" y="350" type="curve" smooth="yes"/>
      <point x="44" y="350" type="line" smooth="yes"/>
      <point x="24" y="350"/>
      <point x="19" y="340"/>
      <point x="19" y="328" type="curve" smooth="yes"/>
      <point x="19" y="316"/>
      <point x="27" y="305"/>
      <point x="47" y="305" type="curve" smooth="yes"/>
    </contour>
  </outline>
</glyph>
<glyph name="five.c2sc" format="2">
  <advance width="362"/>
  <outline>
    <contour>
      <point x="65" y="192" type="line"/>
      <point x="94" y="200"/>
      <point x="113" y="204"/>
      <point x="132" y="204" type="curve" smooth="yes"/>
      <point x="180" y="204"/>
      <point x="201" y="174"/>
      <point x="203" y="149" type="curve" smooth="yes"/>
      <point x="205" y="109"/>
      <point x="163" y="44"/>
      <point x="103" y="44" type="curve" smooth="yes"/>
      <point x="87" y="44"/>
      <point x="75" y="50"/>
      <point x="66" y="57" type="curve" smooth="yes"/>
      <point x="60" y="63"/>
      <point x="51" y="65"/>
      <point x="45" y="65" type="curve" smooth="yes"/>
      <point x="33" y="65"/>
      <point x="22" y="56"/>
      <point x="23" y="44" type="curve" smooth="yes"/>
      <point x="23" y="38"/>
      <point x="28" y="29"/>
      <point x="36" y="21" type="curve"/>
      <point x="53" y="7"/>
      <point x="77" y="-4"/>
      <point x="106" y="-4" type="curve" smooth="yes"/>
      <point x="198" y="-4"/>
      <point x="257" y="89"/>
      <point x="253" y="150" type="curve" smooth="yes"/>
      <point x="249" y="203"/>
      <point x="199" y="252"/>
      <point x="125" y="252" type="curve" smooth="yes"/>
      <point x="104" y="252"/>
      <point x="84" y="248"/>
      <point x="57" y="239" type="curve"/>
    </contour>
    <contour>
      <point x="107" y="371" type="line"/>
      <point x="90" y="395" type="line"/>
      <point x="84" y="398"/>
      <point x="71" y="394"/>
      <point x="67" y="389" type="curve"/>
      <point x="61" y="386"/>
      <point x="58" y="379"/>
      <point x="57" y="372" type="curve"/>
      <point x="40" y="216" type="line" smooth="yes"/>
      <point x="38" y="202"/>
      <point x="51" y="193"/>
      <point x="66" y="193" type="curve" smooth="yes"/>
      <point x="77" y="193"/>
      <point x="90" y="200"/>
      <point x="91" y="214" type="curve" smooth="yes"/>
    </contour>
    <contour>
      <point x="80" y="352" type="line"/>
      <point x="252" y="352" type="line" smooth="yes"/>
      <point x="270" y="352"/>
      <point x="277" y="362"/>
      <point x="276" y="373" type="curve" smooth="yes"/>
      <point x="275" y="383"/>
      <point x="268" y="396"/>
      <point x="249" y="396" type="curve" smooth="yes"/>
      <point x="77" y="396" type="line"/>
    </contour>
  </outline>
</glyph>
<glyph name="four.c2sc" format="2">
  <advance width="348"/>
  <outline>
    <contour>
      <point x="112" y="369" type="line" smooth="yes"/>
      <point x="114" y="387"/>
      <point x="100" y="396"/>
      <point x="87" y="396" type="curve" smooth="yes"/>
      <point x="77" y="396"/>
      <point x="64" y="390"/>
      <point x="62" y="374" type="curve" smooth="yes"/>
      <point x="33" y="116" type="line"/>
      <point x="33" y="103"/>
      <point x="43" y="91"/>
      <point x="60" y="91" type="curve" smooth="yes"/>
      <point x="76" y="91"/>
      <point x="83" y="103"/>
      <point x="83" y="114" type="curve"/>
    </contour>
    <contour>
      <point x="198" y="195" type="line" smooth="yes"/>
      <point x="200" y="211"/>
      <point x="189" y="221"/>
      <point x="178" y="224" type="curve" smooth="yes"/>
      <point x="165" y="226"/>
      <point x="151" y="219"/>
      <point x="149" y="202" type="curve" smooth="yes"/>
      <point x="129" y="29" type="line" smooth="yes"/>
      <point x="127" y="11"/>
      <point x="139" y="0"/>
      <point x="153" y="0" type="curve" smooth="yes"/>
      <point x="163" y="0"/>
      <point x="178" y="6"/>
      <point x="179" y="23" type="curve" smooth="yes"/>
    </contour>
    <contour>
      <point x="53" y="91" type="line"/>
      <point x="262" y="91" type="line" smooth="yes"/>
      <point x="278" y="91"/>
      <point x="287" y="103"/>
      <point x="286" y="114" type="curve" smooth="yes"/>
      <point x="285" y="125"/>
      <point x="275" y="135"/>
      <point x="259" y="135" type="curve" smooth="yes"/>
      <point x="50" y="135" type="line"/>
    </contour>
  </outline>
</glyph>
<glyph name="g.sc" format="2">
  <advance width="376"/>
  <outline>
    <contour>
      <point x="272" y="225" type="line"/>
      <point x="257" y="225"/>
      <point x="256" y="230"/>
      <point x="218" y="164" type="curve" smooth="yes"/>
      <point x="199" y="132"/>
      <point x="149" y="48"/>
      <point x="116" y="48" type="curve" smooth="yes"/>
      <point x="104" y="48"/>
      <point x="99" y="64"/>
      <point x="97" y="89" type="curve" smooth="yes"/>
      <point x="94" y="125"/>
      <point x="97" y="188"/>
      <point x="99" y="211" type="curve" smooth="yes"/>
      <point x="101" y="236"/>
      <point x="102" y="346"/>
      <point x="228" y="346" type="curve" smooth="yes"/>
      <point x="250" y="346"/>
      <point x="258" y="342"/>
      <point x="262" y="325" type="curve" smooth="yes"/>
      <point x="265" y="312"/>
      <point x="281" y="304"/>
      <point x="294" y="308" type="curve" smooth="yes"/>
      <point x="308" y="311"/>
      <point x="311" y="325"/>
      <point x="308" y="337" type="curve" smooth="yes"/>
      <point x="299" y="377"/>
      <point x="263" y="396"/>
      <point x="223" y="396" type="curve" smooth="yes"/>
      <point x="53" y="396"/>
      <point x="51" y="230"/>
      <point x="49" y="214" type="curve" smooth="yes"/>
      <point x="47" y="195"/>
      <point x="44" y="129"/>
      <point x="47" y="92" type="curve" smooth="yes"/>
      <point x="50" y="49"/>
      <point x="70" y="-4"/>
      <point x="117" y="-4" type="curve" smooth="yes"/>
      <point x="165" y="-4"/>
      <point x="208" y="52"/>
      <point x="249" y="115" type="curve"/>
    </contour>
    <contour>
      <point x="295" y="196" type="line" smooth="yes"/>
      <point x="297" y="214"/>
      <point x="287" y="225"/>
      <point x="272" y="225" type="curve" smooth="yes"/>
      <point x="254" y="225"/>
      <point x="246" y="214"/>
      <point x="246" y="199" type="curve"/>
      <point x="227" y="29" type="line" smooth="yes"/>
      <point x="225" y="15"/>
      <point x="234" y="1"/>
      <point x="251" y="0" type="curve" smooth="yes"/>
      <point x="269" y="-1"/>
      <point x="276" y="12"/>
      <point x="277" y="25" type="curve" smooth="yes"/>
    </contour>
  </outline>
</glyph>
<glyph name="grave.c2sc" format="2">
  <advance width="247"/>
  <outline>
    <contour>
      <point x="127" y="439" type="line" smooth="yes"/>
      <point x="120" y="452"/>
      <point x="107" y="457"/>
      <point x="96" y="457" type="curve" smooth="yes"/>
      <point x="80" y="456"/>
      <point x="66" y="442"/>
      <point x="81" y="420" type="curve" smooth="yes"/>
      <point x="141" y="328" type="line" smooth="yes"/>
      <point x="151" y="313"/>
      <point x="164" y="310"/>
      <point x="173" y="315" type="curve" smooth="yes"/>
      <point x="181" y="319"/>
      <point x="183" y="329"/>
      <point x="176" y="343" type="curve" smooth="yes"/>
    </contour>
  </outline>
</glyph>
<glyph name="i.sc" format="2">
  <advance width="222"/>
  <outline>
    <contour>
      <point x="139" y="368" type="line" smooth="yes"/>
      <point x="141" y="387"/>
      <point x="131" y="396"/>
      <point x="114" y="396" type="curve" smooth="yes"/>
      <point x="98" y="396"/>
      <point x="91" y="390"/>
      <point x="89" y="374" type="curve" smooth="yes"/>
      <point x="52" y="29" type="line" smooth="yes"/>
      <point x="50" y="14"/>
      <point x="60" y="0"/>
      <point x="77" y="0" type="curve" smooth="yes"/>
      <point x="97" y="0"/>
      <point x="101" y="16"/>
      <point x="102" y="22" type="curve" smooth="yes"/>
    </contour>
  </outline>
</glyph>
<glyph name="i.ss01" format="2">
  <advance width="194"/>
  <outline>
    <contour>
      <point x="43" y="323" type="curve" smooth="yes"/>
      <point x="24" y="147" type="line" smooth="yes"/>
      <point x="17" y="79"/>
      <point x="24" y="1"/>
      <point x="94" y="1" type="curve" smooth="yes"/>
      <point x="127" y="1"/>
      <point x="139" y="18"/>
      <point x="158" y="51" type="curve" smooth="yes"/>
      <point x="174" y="80"/>
      <point x="177" y="87"/>
      <point x="176" y="95" type="curve" smooth="yes"/>
      <point x="175" y="110"/>
      <point x="163" y="117"/>
      <point x="152" y="117" type="curve" smooth="yes"/>
      <point x="140" y="117"/>
      <point x="132" y="109"/>
      <point x="130" y="105" type="curve" smooth="yes"/>
      <point x="118" y="82" type="line" smooth="yes"/>
      <point x="106" y="60"/>
      <point x="97" y="47"/>
      <point x="90" y="47" type="curve" smooth="yes"/>
      <point x="70" y="47"/>
      <point x="71" y="112"/>
      <point x="73" y="133" type="curve" smooth="yes"/>
      <point x="93" y="320" type="line" smooth="yes"/>
      <point x="95" y="340"/>
      <point x="83" y="350"/>
      <point x="71" y="350" type="curve" smooth="yes"/>
      <point x="58" y="350"/>
      <point x="45" y="341"/>
    </contour>
    <contour>
      <point x="84" y="440" type="curve" smooth="yes"/>
      <point x="99" y="440"/>
      <point x="111" y="454"/>
      <point x="111" y="468" type="curve" smooth="yes"/>
      <point x="111" y="483"/>
      <point x="99" y="495"/>
      <point x="84" y="495" type="curve" smooth="yes"/>
      <point x="70" y="495"/>
      <point x="56" y="483"/>
      <point x="56" y="468" type="curve" smooth="yes"/>
      <point x="56" y="454"/>
      <point x="70" y="440"/>
    </contour>
  </outline>
</glyph>
<glyph name="j.sc" format="2">
  <advance width="316"/>
  <outline>
    <contour>
      <point x="203" y="373" type="curve"/>
      <point x="177" y="128" type="line" smooth="yes"/>
      <point x="174" y="100"/>
      <point x="170" y="74"/>
      <point x="155" y="59" type="curve" smooth="yes"/>
      <point x="147" y="50"/>
      <point x="133" y="46"/>
      <point x="115" y="46" type="curve" smooth="yes"/>
      <point x="102" y="46"/>
      <point x="93" y="54"/>
      <point x="84" y="65" type="curve" smooth="yes"/>
      <point x="71" y="81"/>
      <point x="53" y="85"/>
      <point x="42" y="75" type="curve" smooth="yes"/>
      <point x="31" y="64"/>
      <point x="32" y="50"/>
      <point x="47" y="32" type="curve" smooth="yes"/>
      <point x="64" y="13"/>
      <point x="86" y="-4"/>
      <point x="118" y="-4" type="curve" smooth="yes"/>
      <point x="149" y="-4"/>
      <point x="171" y="6"/>
      <point x="188" y="21" type="curve" smooth="yes"/>
      <point x="211" y="43"/>
      <point x="222" y="80"/>
      <point x="227" y="124" type="curve" smooth="yes"/>
      <point x="253" y="366" type="line" smooth="yes"/>
      <point x="255" y="384"/>
      <point x="246" y="396"/>
      <point x="228" y="396" type="curve" smooth="yes"/>
      <point x="213" y="396"/>
      <point x="206" y="389"/>
    </contour>
  </outline>
</glyph>
<glyph name="m.sc" format="2">
  <advance width="522"/>
  <outline>
    <contour>
      <point x="241" y="51" type="line"/>
      <point x="124" y="379" type="line" smooth="yes"/>
      <point x="121" y="390"/>
      <point x="110" y="396"/>
      <point x="94" y="396" type="curve"/>
      <point x="83" y="352" type="line"/>
      <point x="203" y="17" type="line" smooth="yes"/>
      <point x="207" y="6"/>
      <point x="214" y="0"/>
      <point x="228" y="0" type="curve"/>
    </contour>
    <contour>
      <point x="117" y="368" type="line"/>
      <point x="95" y="396" type="line"/>
      <point x="82" y="396"/>
      <point x="71" y="392"/>
      <point x="69" y="374" type="curve" smooth="yes"/>
      <point x="32" y="29" type="line" smooth="yes"/>
      <point x="30" y="14"/>
      <point x="40" y="0"/>
      <point x="57" y="0" type="curve" smooth="yes"/>
      <point x="75" y="0"/>
      <point x="81" y="13"/>
      <point x="82" y="25" type="curve" smooth="yes"/>
    </contour>
    <contour>
      <point x="398" y="0" type="curve" smooth="yes"/>
      <point x="416" y="0"/>
      <point x="422" y="12"/>
      <point x="423" y="23" type="curve" smooth="yes"/>
      <point x="459" y="368" type="line" smooth="yes"/>
      <point x="461" y="386"/>
      <point x="452" y="396"/>
      <point x="437" y="396" type="curve"/>
      <point x="407" y="345" type="line"/>
      <point x="373" y="29" type="line" smooth="yes"/>
      <point x="371" y="14"/>
      <point x="382" y="0"/>
    </contour>
    <contour>
      <point x="213" y="50" type="line"/>
      <point x="227" y="0" type="line"/>
      <point x="239" y="0"/>
      <point x="245" y="4"/>
      <point x="251" y="15" type="curve" smooth="yes"/>
      <point x="445" y="339" type="line"/>
      <point x="438" y="396" type="line"/>
      <point x="430" y="396"/>
      <point x="418" y="393"/>
      <point x="413" y="385" type="curve" smooth="yes"/>
    </contour>
  </outline>
</glyph>
<glyph name="n.sc" format="2">
  <advance width="378"/>
  <outline>
    <contour>
      <point x="255" y="52" type="line"/>
      <point x="126" y="377" type="line" smooth="yes"/>
      <point x="123" y="384"/>
      <point x="115" y="396"/>
      <point x="95" y="396" type="curve"/>
      <point x="92" y="327" type="line"/>
      <point x="215" y="17" type="line" smooth="yes"/>
      <point x="220" y="5"/>
      <point x="231" y="0"/>
      <point x="252" y="0" type="curve"/>
    </contour>
    <contour>
      <point x="114" y="325" type="line"/>
      <point x="96" y="396" type="line"/>
      <point x="76" y="396"/>
      <point x="70" y="384"/>
      <point x="69" y="374" type="curve" smooth="yes"/>
      <point x="32" y="29" type="line" smooth="yes"/>
      <point x="30" y="13"/>
      <point x="41" y="0"/>
      <point x="58" y="0" type="curve" smooth="yes"/>
      <point x="75" y="0"/>
      <point x="81" y="12"/>
      <point x="82" y="25" type="curve" smooth="yes"/>
    </contour>
    <contour>
      <point x="250" y="0" type="line"/>
      <point x="273" y="0"/>
      <point x="278" y="16"/>
      <point x="279" y="22" type="curve" smooth="yes"/>
      <point x="315" y="368" type="line" smooth="yes"/>
      <point x="316" y="379"/>
      <point x="312" y="396"/>
      <point x="292" y="396" type="curve" smooth="yes"/>
      <point x="273" y="396"/>
      <point x="266" y="381"/>
      <point x="265" y="368" type="curve" smooth="yes"/>
      <point x="230" y="37" type="line"/>
    </contour>
  </outline>
</glyph>
<glyph name="n.ss01" format="2">
  <advance width="387"/>
  <outline>
    <contour>
      <point x="91" y="323" type="line" smooth="yes"/>
      <point x="93" y="340"/>
      <point x="90" y="350"/>
      <point x="73" y="350" type="curve" smooth="yes"/>
      <point x="53" y="350"/>
      <point x="43" y="341"/>
      <point x="41" y="323" type="curve" smooth="yes"/>
      <point x="9" y="23" type="line" smooth="yes"/>
      <point x="8" y="15"/>
      <point x="11" y="0"/>
      <point x="33" y="0" type="curve" smooth="yes"/>
      <point x="59" y="0"/>
      <point x="58" y="18"/>
      <point x="59" y="23" type="curve" smooth="yes"/>
    </contour>
    <contour>
      <point x="227" y="234" type="curve" smooth="yes"/>
      <point x="217" y="146" type="line" smooth="yes"/>
      <point x="209" y="72"/>
      <point x="217" y="0"/>
      <point x="287" y="0" type="curve" smooth="yes"/>
      <point x="320" y="0"/>
      <point x="332" y="17"/>
      <point x="351" y="50" type="curve" smooth="yes"/>
      <point x="367" y="79"/>
      <point x="370" y="86"/>
      <point x="369" y="94" type="curve" smooth="yes"/>
      <point x="368" y="109"/>
      <point x="356" y="116"/>
      <point x="345" y="116" type="curve" smooth="yes"/>
      <point x="333" y="116"/>
      <point x="325" y="108"/>
      <point x="323" y="104" type="curve" smooth="yes"/>
      <point x="311" y="81" type="line" smooth="yes"/>
      <point x="299" y="59"/>
      <point x="290" y="46"/>
      <point x="283" y="46" type="curve" smooth="yes"/>
      <point x="263" y="46"/>
      <point x="264" y="110"/>
      <point x="266" y="132" type="curve" smooth="yes"/>
      <point x="277" y="234" type="line" smooth="yes"/>
      <point x="283" y="291"/>
      <point x="257" y="354"/>
      <point x="199" y="354" type="curve" smooth="yes"/>
      <point x="144" y="354"/>
      <point x="107" y="313"/>
      <point x="63" y="246" type="curve"/>
      <point x="53" y="114" type="line"/>
      <point x="115" y="251"/>
      <point x="154" y="305"/>
      <point x="196" y="305" type="curve" smooth="yes"/>
      <point x="221" y="305"/>
      <point x="230" y="261"/>
    </contour>
  </outline>
</glyph>
<glyph name="p.sc" format="2">
  <advance width="314"/>
  <outline>
    <contour>
      <point x="90" y="187" type="line"/>
      <point x="192" y="187"/>
      <point x="296" y="184"/>
      <point x="307" y="287" type="curve" smooth="yes"/>
      <point x="315" y="368"/>
      <point x="214" y="396"/>
      <point x="95" y="396" type="curve"/>
      <point x="99" y="350" type="line"/>
      <point x="206" y="350"/>
      <point x="262" y="331"/>
      <point x="257" y="294" type="curve" smooth="yes"/>
      <point x="252" y="235"/>
      <point x="175" y="238"/>
      <point x="93" y="238" type="curve"/>
    </contour>
    <contour>
      <point x="118" y="370" type="line" smooth="yes"/>
      <point x="120" y="387"/>
      <point x="113" y="396"/>
      <point x="95" y="396" type="curve" smooth="yes"/>
      <point x="78" y="396"/>
      <point x="70" y="387"/>
      <point x="69" y="376" type="curve" smooth="yes"/>
      <point x="32" y="31" type="line" smooth="yes"/>
      <point x="30" y="14"/>
      <point x="42" y="0"/>
      <point x="58" y="0" type="curve" smooth="yes"/>
      <point x="76" y="0"/>
      <point x="81" y="14"/>
      <point x="82" y="25" type="curve" smooth="yes"/>
    </contour>
  </outline>
</glyph>
<glyph name="q.sc" format="2">
  <advance width="359"/>
  <outline>
    <contour>
      <point x="182" y="103" type="line" smooth="yes"/>
      <point x="168" y="116"/>
      <point x="152" y="115"/>
      <point x="142" y="103" type="curve" smooth="yes"/>
      <point x="136" y="94"/>
      <point x="137" y="80"/>
      <point x="151" y="67" type="curve" smooth="yes"/>
      <point x="231" y="-9" type="line" smooth="yes"/>
      <point x="244" y="-21"/>
      <point x="259" y="-23"/>
      <point x="269" y="-15" type="curve" smooth="yes"/>
      <point x="279" y="-7"/>
      <point x="278" y="12"/>
      <point x="266" y="24" type="curve" smooth="yes"/>
    </contour>
    <contour>
      <point x="138" y="0" type="curve" smooth="yes"/>
      <point x="241" y="0"/>
      <point x="292" y="155"/>
      <point x="303" y="265" type="curve" smooth="yes"/>
      <point x="311" y="332"/>
      <point x="265" y="396"/>
      <point x="183" y="396" type="curve" smooth="yes"/>
      <point x="69" y="396"/>
      <point x="48" y="269"/>
      <point x="48" y="175" type="curve" smooth="yes"/>
      <point x="46" y="94"/>
      <point x="72" y="0"/>
    </contour>
    <contour>
      <point x="138" y="50" type="curve" smooth="yes"/>
      <point x="113" y="50"/>
      <point x="96" y="122"/>
      <point x="98" y="167" type="curve" smooth="yes"/>
      <point x="102" y="252"/>
      <point x="109" y="346"/>
      <point x="183" y="346" type="curve" smooth="yes"/>
      <point x="244" y="346"/>
      <point x="256" y="295"/>
      <point x="253" y="266" type="curve" smooth="yes"/>
      <point x="244" y="175"/>
      <point x="200" y="50"/>
    </contour>
  </outline>
</glyph>
<glyph name="questiondown.c2sc" format="2">
  <advance width="359"/>
  <outline>
    <contour>
      <point x="203" y="256" type="line"/>
      <point x="117" y="256"/>
      <point x="47" y="228"/>
      <point x="39" y="120" type="curve" smooth="yes"/>
      <point x="33" y="50"/>
      <point x="68" y="0"/>
      <point x="153" y="0" type="curve" smooth="yes"/>
      <point x="215" y="0"/>
      <point x="258" y="29"/>
      <point x="283" y="87" type="curve" smooth="yes"/>
      <point x="290" y="103"/>
      <point x="282" y="118"/>
      <point x="274" y="121" type="curve" smooth="yes"/>
      <point x="266" y="124"/>
      <point x="244" y="124"/>
      <point x="238" y="109" type="curve" smooth="yes"/>
      <point x="223" y="71"/>
      <point x="200" y="50"/>
      <point x="156" y="50" type="curve" smooth="yes"/>
      <point x="86" y="50"/>
      <point x="86" y="87"/>
      <point x="89" y="122" type="curve" smooth="yes"/>
      <point x="98" y="211"/>
      <point x="162" y="206"/>
      <point x="211" y="206" type="curve" smooth="yes"/>
      <point x="214" y="206"/>
      <point x="215" y="208"/>
      <point x="217" y="210" type="curve"/>
    </contour>
    <contour>
      <point x="243" y="419" type="curve" smooth="yes"/>
      <point x="225" y="419"/>
      <point x="209" y="404"/>
      <point x="209" y="388" type="curve" smooth="yes"/>
      <point x="209" y="369"/>
      <point x="224" y="354"/>
      <point x="243" y="354" type="curve" smooth="yes"/>
      <point x="260" y="354"/>
      <point x="274" y="370"/>
      <point x="274" y="388" type="curve" smooth="yes"/>
      <point x="274" y="403"/>
      <point x="260" y="419"/>
    </contour>
    <contour>
      <point x="227" y="306" type="curve" smooth="yes"/>
      <point x="214" y="308"/>
      <point x="200" y="301"/>
      <point x="196" y="279" type="curve" smooth="yes"/>
      <point x="186" y="225" type="line" smooth="yes"/>
      <point x="185" y="218"/>
      <point x="192" y="206"/>
      <point x="212" y="206" type="curve" smooth="yes"/>
      <point x="223" y="206"/>
      <point x="235" y="214"/>
      <point x="237" y="225" type="curve" smooth="yes"/>
      <point x="247" y="279" type="line" smooth="yes"/>
      <point x="250" y="293"/>
      <point x="239" y="303"/>
    </contour>
  </outline>
</glyph>
<glyph name="quotedbl.c2sc" format="2">
  <advance width="291"/>
  <outline>
    <contour>
      <point x="126" y="428" type="line" smooth="yes"/>
      <point x="128" y="448"/>
      <point x="115" y="458"/>
      <point x="102" y="458" type="curve" smooth="yes"/>
      <point x="90" y="458"/>
      <point x="76" y="449"/>
      <point x="74" y="432" type="curve" smooth="yes"/>
      <point x="64" y="336" type="line" smooth="yes"/>
      <point x="62" y="318"/>
      <point x="75" y="308"/>
      <point x="88" y="308" type="curve" smooth="yes"/>
      <point x="100" y="308"/>
      <point x="113" y="316"/>
      <point x="115" y="332" type="curve" smooth="yes"/>
    </contour>
    <contour>
      <point x="234" y="428" type="line" smooth="yes"/>
      <point x="235" y="448"/>
      <point x="223" y="458"/>
      <point x="209" y="458" type="curve" smooth="yes"/>
      <point x="197" y="458"/>
      <point x="185" y="450"/>
      <point x="183" y="436" type="curve" smooth="yes"/>
      <point x="172" y="336" type="line" smooth="yes"/>
      <point x="170" y="317"/>
      <point x="183" y="308"/>
      <point x="197" y="308" type="curve" smooth="yes"/>
      <point x="209" y="308"/>
      <point x="223" y="315"/>
      <point x="224" y="329" type="curve" smooth="yes"/>
    </contour>
  </outline>
</glyph>
<glyph name="quotesingle.c2sc" format="2">
  <advance width="183"/>
  <outline>
    <contour>
      <point x="126" y="428" type="line" smooth="yes"/>
      <point x="127" y="448"/>
      <point x="115" y="458"/>
      <point x="101" y="458" type="curve" smooth="yes"/>
      <point x="89" y="458"/>
      <point x="77" y="450"/>
      <point x="75" y="436" type="curve" smooth="yes"/>
      <point x="64" y="336" type="line" smooth="yes"/>
      <point x="62" y="317"/>
      <point x="75" y="308"/>
      <point x="89" y="308" type="curve" smooth="yes"/>
      <point x="101" y="308"/>
      <point x="115" y="315"/>
      <point x="116" y="329" type="curve" smooth="yes"/>
    </contour>
  </outline>
</glyph>
<glyph name="r.sc" format="2">
  <advance width="328"/>
  <outline>
    <contour>
      <point x="90" y="187" type="line"/>
      <point x="188" y="186"/>
      <point x="296" y="182"/>
      <point x="307" y="285" type="curve" smooth="yes"/>
      <point x="315" y="366"/>
      <point x="234" y="396"/>
      <point x="94" y="396" type="curve"/>
      <point x="91" y="345" type="line"/>
      <point x="211" y="346"/>
      <point x="262" y="330"/>
      <point x="258" y="292" type="curve" smooth="yes"/>
      <point x="251" y="232"/>
      <point x="171" y="238"/>
      <point x="93" y="238" type="curve"/>
    </contour>
    <contour>
      <point x="141" y="213" type="line"/>
      <point x="74" y="219" type="line"/>
      <point x="230" y="14" type="line" smooth="yes"/>
      <point x="238" y="4"/>
      <point x="246" y="0"/>
      <point x="254" y="0" type="curve" smooth="yes"/>
      <point x="264" y="0"/>
      <point x="273" y="6"/>
      <point x="277" y="14" type="curve" smooth="yes"/>
      <point x="280" y="19"/>
      <point x="280" y="30"/>
      <point x="273" y="39" type="curve" smooth="yes"/>
    </contour>
    <contour>
      <point x="118" y="368" type="line"/>
      <point x="119" y="387"/>
      <point x="111" y="396"/>
      <point x="94" y="396" type="curve" smooth="yes"/>
      <point x="77" y="396"/>
      <point x="71" y="390"/>
      <point x="69" y="374" type="curve" smooth="yes"/>
      <point x="32" y="32" type="line" smooth="yes"/>
      <point x="30" y="13"/>
      <point x="42" y="0"/>
      <point x="57" y="0" type="curve" smooth="yes"/>
      <point x="75" y="0"/>
      <point x="81" y="13"/>
      <point x="82" y="27" type="curve" smooth="yes"/>
    </contour>
  </outline>
</glyph>
<glyph name="three.c2sc" format="2">
  <advance width="350"/>
  <outline>
    <contour>
      <point x="73" y="180" type="line"/>
      <point x="108" y="196"/>
      <point x="133" y="203"/>
      <point x="152" y="203" type="curve" smooth="yes"/>
      <point x="187" y="203"/>
      <point x="198" y="183"/>
      <point x="200" y="157" type="curve" smooth="yes"/>
      <point x="204" y="93"/>
      <point x="135" y="45"/>
      <point x="78" y="45" type="curve" smooth="yes"/>
      <point x="63" y="45"/>
      <point x="52" y="48"/>
      <point x="40" y="57" type="curve" smooth="yes"/>
      <point x="19" y="71"/>
      <point x="4" y="59"/>
      <point x="1" y="54" type="curve" smooth="yes"/>
      <point x="-4" y="47"/>
      <point x="-9" y="36"/>
      <point x="15" y="18" type="curve" smooth="yes"/>
      <point x="33" y="4"/>
      <point x="57" y="-3"/>
      <point x="81" y="-3" type="curve" smooth="yes"/>
      <point x="161" y="-3"/>
      <point x="256" y="68"/>
      <point x="250" y="157" type="curve" smooth="yes"/>
      <point x="246" y="213"/>
      <point x="207" y="250"/>
      <point x="146" y="250" type="curve" smooth="yes"/>
      <point x="119" y="250"/>
      <point x="87" y="243"/>
      <point x="55" y="226" type="curve"/>
    </contour>
    <contour>
      <point x="81" y="183" type="curve" smooth="yes"/>
      <point x="160" y="239"/>
      <point x="238" y="297"/>
      <point x="235" y="342" type="curve" smooth="yes"/>
      <point x="233" y="375"/>
      <point x="198" y="396"/>
      <point x="156" y="396" type="curve" smooth="yes"/>
      <point x="123" y="396"/>
      <point x="80" y="383"/>
      <point x="42" y="357" type="curve" smooth="yes"/>
      <point x="23" y="344"/>
      <point x="27" y="328"/>
      <point x="33" y="321" type="curve"/>
      <point x="37" y="311"/>
      <point x="55" y="304"/>
      <point x="67" y="313" type="curve" smooth="yes"/>
      <point x="106" y="341"/>
      <point x="140" y="351"/>
      <point x="163" y="351" type="curve" smooth="yes"/>
      <point x="179" y="351"/>
      <point x="185" y="348"/>
      <point x="185" y="342" type="curve" smooth="yes"/>
      <point x="186" y="324"/>
      <point x="104" y="258"/>
      <point x="50" y="223" type="curve" smooth="yes"/>
      <point x="36" y="213"/>
      <point x="40" y="198"/>
      <point x="43" y="191" type="curve" smooth="yes"/>
      <point x="47" y="182"/>
      <point x="67" y="173"/>
    </contour>
  </outline>
</glyph>
<glyph name="u.sc" format="2">
  <advance width="378"/>
  <outline>
    <contour>
      <point x="243" y="106" type="curve"/>
      <point x="255" y="224" type="line"/>
      <point x="251" y="215"/>
      <point x="247" y="208"/>
      <point x="244" y="203" type="curve" smooth="yes"/>
      <point x="212" y="144"/>
      <point x="137" y="46"/>
      <point x="99" y="46" type="curve" smooth="yes"/>
      <point x="84" y="46"/>
      <point x="87" y="76"/>
      <point x="91" y="113" type="curve" smooth="yes"/>
      <point x="119" y="370" type="line" smooth="yes"/>
      <point x="121" y="384"/>
      <point x="111" y="395"/>
      <point x="95" y="396" type="curve" smooth="yes"/>
      <point x="81" y="396"/>
      <point x="71" y="387"/>
      <point x="69" y="373" type="curve" smooth="yes"/>
      <point x="41" y="119" type="line" smooth="yes"/>
      <point x="32" y="37"/>
      <point x="56" y="-4"/>
      <point x="98" y="-4" type="curve" smooth="yes"/>
      <point x="136" y="-4"/>
      <point x="193" y="39"/>
    </contour>
    <contour>
      <point x="316" y="371" type="line" smooth="yes"/>
      <point x="318" y="387"/>
      <point x="309" y="396"/>
      <point x="292" y="396" type="curve" smooth="yes"/>
      <point x="277" y="396"/>
      <point x="267" y="389"/>
      <point x="266" y="376" type="curve" smooth="yes"/>
      <point x="230" y="34" type="line" smooth="yes"/>
      <point x="227" y="10"/>
      <point x="239" y="0"/>
      <point x="256" y="0" type="curve" smooth="yes"/>
      <point x="268" y="0"/>
      <point x="278" y="8"/>
      <point x="279" y="22" type="curve" smooth="yes"/>
    </contour>
  </outline>
</glyph>
<glyph name="u.ss01" format="2">
  <advance width="388"/>
  <outline>
    <contour>
      <point x="238" y="327" type="curve" smooth="yes"/>
      <point x="218" y="146" type="line" smooth="yes"/>
      <point x="210" y="70"/>
      <point x="218" y="0"/>
      <point x="288" y="0" type="curve" smooth="yes"/>
      <point x="321" y="0"/>
      <point x="333" y="17"/>
      <point x="352" y="50" type="curve" smooth="yes"/>
      <point x="368" y="79"/>
      <point x="371" y="86"/>
      <point x="370" y="94" type="curve" smooth="yes"/>
      <point x="369" y="109"/>
      <point x="357" y="116"/>
      <point x="346" y="116" type="curve" smooth="yes"/>
      <point x="334" y="116"/>
      <point x="326" y="108"/>
      <point x="324" y="104" type="curve" smooth="yes"/>
      <point x="312" y="81" type="line" smooth="yes"/>
      <point x="300" y="59"/>
      <point x="291" y="46"/>
      <point x="284" y="46" type="curve" smooth="yes"/>
      <point x="264" y="46"/>
      <point x="265" y="111"/>
      <point x="267" y="132" type="curve" smooth="yes"/>
      <point x="288" y="327" type="line" smooth="yes"/>
      <point x="289" y="335"/>
      <point x="287" y="350"/>
      <point x="265" y="350" type="curve" smooth="yes"/>
      <point x="239" y="350"/>
      <point x="239" y="332"/>
    </contour>
    <contour>
      <point x="233" y="104" type="curve"/>
      <point x="243" y="236" type="line"/>
      <point x="181" y="99"/>
      <point x="142" y="45"/>
      <point x="100" y="45" type="curve" smooth="yes"/>
      <point x="75" y="45"/>
      <point x="66" y="89"/>
      <point x="69" y="116" type="curve" smooth="yes"/>
      <point x="92" y="327" type="line" smooth="yes"/>
      <point x="93" y="335"/>
      <point x="91" y="350"/>
      <point x="69" y="350" type="curve"/>
      <point x="43" y="350"/>
      <point x="43" y="332"/>
      <point x="42" y="327" type="curve" smooth="yes"/>
      <point x="19" y="116" type="line" smooth="yes"/>
      <point x="13" y="59"/>
      <point x="39" y="-4"/>
      <point x="97" y="-4" type="curve" smooth="yes"/>
      <point x="152" y="-4"/>
      <point x="189" y="37"/>
    </contour>
  </outline>
</glyph>
<glyph name="v.sc" format="2">
  <advance width="309"/>
  <outline>
    <contour>
      <point x="99" y="0" type="line"/>
      <point x="113" y="0"/>
      <point x="119" y="8"/>
      <point x="125" y="20" type="curve" smooth="yes"/>
      <point x="280" y="364" type="line" smooth="yes"/>
      <point x="288" y="383"/>
      <point x="276" y="396"/>
      <point x="259" y="396" type="curve" smooth="yes"/>
      <point x="243" y="396"/>
      <point x="237" y="390"/>
      <point x="232" y="380" type="curve" smooth="yes"/>
      <point x="88" y="60" type="line"/>
    </contour>
    <contour>
      <point x="119" y="60" type="line"/>
      <point x="86" y="374" type="line" smooth="yes"/>
      <point x="85" y="387"/>
      <point x="74" y="396"/>
      <point x="57" y="396" type="curve" smooth="yes"/>
      <point x="42" y="396"/>
      <point x="34" y="389"/>
      <point x="36" y="373" type="curve" smooth="yes"/>
      <point x="72" y="27" type="line" smooth="yes"/>
      <point x="73" y="13"/>
      <point x="85" y="0"/>
      <point x="101" y="0" type="curve"/>
    </contour>
  </outline>
</glyph>
<glyph name="v.ss01" format="2">
  <advance width="386"/>
  <outline>
    <contour>
      <point x="91" y="320" type="line" smooth="yes"/>
      <point x="93" y="340"/>
      <point x="83" y="350"/>
      <point x="70" y="350" type="curve" smooth="yes"/>
      <point x="58" y="350"/>
      <point x="43" y="341"/>
      <point x="41" y="323" type="curve" smooth="yes"/>
      <point x="18" y="102" type="line" smooth="yes"/>
      <point x="12" y="49"/>
      <point x="31" y="-4"/>
      <point x="73" y="-4" type="curve" smooth="yes"/>
      <point x="133" y="-4"/>
      <point x="192" y="69"/>
      <point x="222" y="138" type="curve" smooth="yes"/>
      <point x="244" y="189"/>
      <point x="273" y="269"/>
      <point x="287" y="314" type="curve" smooth="yes"/>
      <point x="294" y="336"/>
      <point x="289" y="350"/>
      <point x="269" y="350" type="curve" smooth="yes"/>
      <point x="251" y="350"/>
      <point x="242" y="336"/>
      <point x="237" y="322" type="curve" smooth="yes"/>
      <point x="222" y="279"/>
      <point x="206" y="229"/>
      <point x="187" y="183" type="curve" smooth="yes"/>
      <point x="170" y="142"/>
      <point x="116" y="47"/>
      <point x="82" y="47" type="curve" smooth="yes"/>
      <point x="61" y="47"/>
      <point x="66" y="79"/>
      <point x="68" y="102" type="curve" smooth="yes"/>
    </contour>
    <contour>
      <point x="277" y="349" type="line"/>
      <point x="271" y="297" type="line"/>
      <point x="321" y="282" type="line" smooth="yes"/>
      <point x="333" y="278"/>
      <point x="346" y="279"/>
      <point x="356" y="286" type="curve" smooth="yes"/>
      <point x="364" y="292"/>
      <point x="368" y="302"/>
      <point x="363" y="314" type="curve" smooth="yes"/>
      <point x="361" y="320"/>
      <point x="356" y="325"/>
      <point x="344" y="329" type="curve" smooth="yes"/>
    </contour>
  </outline>
</glyph>
<glyph name="w.sc" format="2">
  <advance width="509"/>
  <outline>
    <contour>
      <point x="299" y="0" type="line"/>
      <point x="316" y="0"/>
      <point x="320" y="8"/>
      <point x="326" y="20" type="curve" smooth="yes"/>
      <point x="481" y="364" type="line" smooth="yes"/>
      <point x="486" y="375"/>
      <point x="485" y="396"/>
      <point x="459" y="396" type="curve" smooth="yes"/>
      <point x="445" y="396"/>
      <point x="438" y="390"/>
      <point x="433" y="380" type="curve" smooth="yes"/>
      <point x="289" y="60" type="line"/>
    </contour>
    <contour>
      <point x="120" y="57" type="line"/>
      <point x="86" y="375" type="line" smooth="yes"/>
      <point x="85" y="386"/>
      <point x="75" y="396"/>
      <point x="57" y="396" type="curve" smooth="yes"/>
      <point x="42" y="396"/>
      <point x="34" y="386"/>
      <point x="36" y="372" type="curve" smooth="yes"/>
      <point x="73" y="26" type="line" smooth="yes"/>
      <point x="75" y="10"/>
      <point x="86" y="0"/>
      <point x="103" y="0" type="curve"/>
    </contour>
    <contour>
      <point x="102" y="0" type="line"/>
      <point x="117" y="0"/>
      <point x="121" y="12"/>
      <point x="126" y="22" type="curve" smooth="yes"/>
      <point x="266" y="332" type="line"/>
      <point x="257" y="396" type="line"/>
      <point x="244" y="396"/>
      <point x="236" y="387"/>
      <point x="232" y="379" type="curve" smooth="yes"/>
      <point x="86" y="55" type="line"/>
    </contour>
    <contour>
      <point x="320" y="63" type="line"/>
      <point x="287" y="375" type="line" smooth="yes"/>
      <point x="286" y="388"/>
      <point x="273" y="396"/>
      <point x="256" y="396" type="curve"/>
      <point x="241" y="332" type="line"/>
      <point x="274" y="21" type="line" smooth="yes"/>
      <point x="275" y="14"/>
      <point x="285" y="0"/>
      <point x="301" y="0" type="curve"/>
    </contour>
  </outline>
</glyph>
<glyph name="x.sc" format="2">
  <advance width="359"/>
  <outline>
    <contour>
      <point x="308" y="355" type="line" smooth="yes"/>
      <point x="317" y="368"/>
      <point x="314" y="384"/>
      <point x="304" y="392" type="curve" smooth="yes"/>
      <point x="293" y="400"/>
      <point x="276" y="399"/>
      <point x="267" y="385" type="curve" smooth="yes"/>
      <point x="34" y="40" type="line" smooth="yes"/>
      <point x="27" y="30"/>
      <point x="28" y="16"/>
      <point x="39" y="6" type="curve" smooth="yes"/>
      <point x="50" y="-3"/>
      <point x="68" y="-3"/>
      <point x="77" y="10" type="curve" smooth="yes"/>
    </contour>
    <contour>
      <point x="116" y="381" type="line" smooth="yes"/>
      <point x="109" y="397"/>
      <point x="93" y="399"/>
      <point x="81" y="395" type="curve" smooth="yes"/>
      <point x="69" y="391"/>
      <point x="65" y="377"/>
      <point x="72" y="361" type="curve" smooth="yes"/>
      <point x="229" y="17" type="line" smooth="yes"/>
      <point x="236" y="2"/>
      <point x="254" y="-5"/>
      <point x="268" y="3" type="curve" smooth="yes"/>
      <point x="279" y="9"/>
      <point x="280" y="24"/>
      <point x="274" y="36" type="curve" smooth="yes"/>
    </contour>
  </outline>
</glyph>
<glyph name="x.ss01" format="2">
  <advance width="351"/>
  <outline>
    <contour>
      <point x="272" y="308" type="line" smooth="yes"/>
      <point x="276" y="314"/>
      <point x="281" y="317"/>
      <point x="280" y="327" type="curve" smooth="yes"/>
      <point x="280" y="333"/>
      <point x="277" y="339"/>
      <point x="272" y="344" type="curve" smooth="yes"/>
      <point x="267" y="349"/>
      <point x="260" y="350"/>
      <point x="253" y="350" type="curve" smooth="yes"/>
      <point x="246" y="349"/>
      <point x="238" y="347"/>
      <point x="234" y="341" type="curve" smooth="yes"/>
      <point x="11" y="43" type="line" smooth="yes"/>
      <point x="5" y="34"/>
      <point x="2" y="28"/>
      <point x="4" y="21" type="curve" smooth="yes"/>
      <point x="5" y="16"/>
      <point x="8" y="11"/>
      <point x="13" y="6" type="curve" smooth="yes"/>
      <point x="17" y="2"/>
      <point x="22" y="0"/>
      <point x="29" y="0" type="curve" smooth="yes"/>
      <point x="37" y="0"/>
      <point x="45" y="5"/>
      <point x="49" y="10" type="curve" smooth="yes"/>
    </contour>
    <contour>
      <point x="42" y="309" type="curve" smooth="yes"/>
      <point x="200" y="20" type="line" smooth="yes"/>
      <point x="208" y="6"/>
      <point x="229" y="-4"/>
      <point x="251" y="-4" type="curve" smooth="yes"/>
      <point x="284" y="-4"/>
      <point x="296" y="13"/>
      <point x="315" y="46" type="curve" smooth="yes"/>
      <point x="331" y="75"/>
      <point x="334" y="82"/>
      <point x="333" y="90" type="curve" smooth="yes"/>
      <point x="332" y="105"/>
      <point x="320" y="112"/>
      <point x="309" y="112" type="curve" smooth="yes"/>
      <point x="297" y="112"/>
      <point x="289" y="104"/>
      <point x="287" y="100" type="curve" smooth="yes"/>
      <point x="275" y="77" type="line" smooth="yes"/>
      <point x="263" y="55"/>
      <point x="256" y="42"/>
      <point x="249" y="42" type="curve" smooth="yes"/>
      <point x="246" y="42"/>
      <point x="238" y="50"/>
      <point x="236" y="54" type="curve" smooth="yes"/>
      <point x="84" y="336" type="line" smooth="yes"/>
      <point x="80" y="344"/>
      <point x="69" y="350"/>
      <point x="61" y="350" type="curve" smooth="yes"/>
      <point x="54" y="350"/>
      <point x="48" y="347"/>
      <point x="43" y="343" type="curve" smooth="yes"/>
      <point x="38" y="339"/>
      <point x="36" y="333"/>
      <point x="35" y="327" type="curve"/>
      <point x="36" y="321"/>
      <point x="39" y="314"/>
    </contour>
  </outline>
</glyph>
<glyph name="z.sc" format="2">
  <advance width="377"/>
  <outline>
    <contour>
      <point x="308" y="354" type="line" smooth="yes"/>
      <point x="314" y="362"/>
      <point x="316" y="375"/>
      <point x="310" y="384" type="curve" smooth="yes"/>
      <point x="306" y="391"/>
      <point x="296" y="396"/>
      <point x="285" y="396" type="curve" smooth="yes"/>
      <point x="278" y="396"/>
      <point x="272" y="391"/>
      <point x="268" y="385" type="curve" smooth="yes"/>
      <point x="37" y="41" type="line" smooth="yes"/>
      <point x="32" y="34"/>
      <point x="28" y="22"/>
      <point x="34" y="13" type="curve" smooth="yes"/>
      <point x="39" y="5"/>
      <point x="48" y="0"/>
      <point x="62" y="0" type="curve" smooth="yes"/>
      <point x="67" y="0"/>
      <point x="73" y="5"/>
      <point x="80" y="15" type="curve" smooth="yes"/>
    </contour>
    <contour>
      <point x="61" y="0" type="line"/>
      <point x="255" y="0" type="line" smooth="yes"/>
      <point x="272" y="0"/>
      <point x="279" y="13"/>
      <point x="278" y="25" type="curve" smooth="yes"/>
      <point x="277" y="39"/>
      <point x="266" y="50"/>
      <point x="251" y="50" type="curve" smooth="yes"/>
      <point x="95" y="50" type="line"/>
    </contour>
    <contour>
      <point x="251" y="346" type="line"/>
      <point x="287" y="396" type="line"/>
      <point x="92" y="396" type="line" smooth="yes"/>
      <point x="75" y="396"/>
      <point x="68" y="384"/>
      <point x="69" y="371" type="curve" smooth="yes"/>
      <point x="70" y="357"/>
      <point x="79" y="346"/>
      <point x="96" y="346" type="curve" smooth="yes"/>
    </contour>
  </outline>
</glyph>
<glyph name="z.ss01" format="2">
  <advance width="331"/>
  <outline>
    <contour>
      <point x="280" y="309" type="line" smooth="yes"/>
      <point x="293" y="326"/>
      <point x="287" y="337"/>
      <point x="280" y="344" type="curve" smooth="yes"/>
      <point x="275" y="349"/>
      <point x="268" y="350"/>
      <point x="261" y="350" type="curve" smooth="yes"/>
      <point x="254" y="349"/>
      <point x="246" y="347"/>
      <point x="242" y="341" type="curve" smooth="yes"/>
      <point x="16" y="44" type="line" smooth="yes"/>
      <point x="6" y="31"/>
      <point x="8" y="19"/>
      <point x="19" y="6" type="curve" smooth="yes"/>
      <point x="23" y="2"/>
      <point x="28" y="0"/>
      <point x="35" y="0" type="curve" smooth="yes"/>
      <point x="43" y="0"/>
      <point x="50" y="6"/>
      <point x="54" y="11" type="curve" smooth="yes"/>
    </contour>
    <contour>
      <point x="259" y="81" type="line" smooth="yes"/>
      <point x="248" y="58"/>
      <point x="238" y="46"/>
      <point x="231" y="46" type="curve" smooth="yes"/>
      <point x="194" y="46"/>
      <point x="182" y="62"/>
      <point x="147" y="62" type="curve" smooth="yes"/>
      <point x="129" y="62"/>
      <point x="88" y="50"/>
      <point x="70" y="50" type="curve"/>
      <point x="33" y="0" type="line"/>
      <point x="63" y="0"/>
      <point x="116" y="16"/>
      <point x="146" y="16" type="curve" smooth="yes"/>
      <point x="185" y="16"/>
      <point x="183" y="0"/>
      <point x="231" y="0" type="curve" smooth="yes"/>
      <point x="264" y="0"/>
      <point x="276" y="17"/>
      <point x="295" y="50" type="curve" smooth="yes"/>
      <point x="311" y="79"/>
      <point x="314" y="86"/>
      <point x="313" y="94" type="curve" smooth="yes"/>
      <point x="312" y="109"/>
      <point x="300" y="116"/>
      <point x="289" y="116" type="curve" smooth="yes"/>
      <point x="277" y="116"/>
      <point x="272" y="108"/>
      <point x="270" y="104" type="curve" smooth="yes"/>
    </contour>
    <contour>
      <point x="226" y="300" type="line"/>
      <point x="263" y="350" type="line"/>
      <point x="66" y="350" type="line" smooth="yes"/>
      <point x="46" y="350"/>
      <point x="41" y="337"/>
      <point x="41" y="325" type="curve" smooth="yes"/>
      <point x="41" y="313"/>
      <point x="49" y="300"/>
      <point x="69" y="300" type="curve" smooth="yes"/>
    </contour>
  </outline>
</glyph>
